<svg width="257" height="256" viewBox="0 0 257 256" fill="none" xmlns="http://www.w3.org/2000/svg">
<circle opacity="0.5" cx="128.232" cy="127.804" r="127.794" fill="url(#paint0_linear)"/>
<path d="M113.731 35.5639V197.439C113.729 198.824 113.178 200.151 112.199 201.129C111.22 202.107 109.893 202.657 108.509 202.657H19.7177C18.3349 202.657 17.0087 202.107 16.0308 201.128C15.053 200.15 14.5037 198.823 14.5037 197.439V35.5639C14.5037 34.1801 15.053 32.8529 16.0308 31.8744C17.0087 30.8959 18.3349 30.3462 19.7177 30.3462H108.509C109.893 30.3462 111.22 30.8956 112.199 31.8739C113.178 32.8522 113.729 34.1793 113.731 35.5639Z" fill="#212529"/>
<path d="M108.508 30.3461C109.892 30.3461 111.219 30.8956 112.198 31.8739C113.177 32.8521 113.729 34.1792 113.731 35.5638V197.439C113.729 198.824 113.177 200.151 112.198 201.129C111.219 202.107 109.892 202.657 108.508 202.657H19.7172C18.3344 202.657 17.0081 202.107 16.0303 201.128C15.0525 200.15 14.5031 198.823 14.5031 197.439V35.5638C14.5031 34.18 15.0525 32.8529 16.0303 31.8744C17.0081 30.8959 18.3344 30.3461 19.7172 30.3461H108.508ZM108.508 29.5005H19.7172C18.1102 29.5005 16.5691 30.1393 15.4328 31.2764C14.2965 32.4135 13.6581 33.9557 13.6581 35.5638V197.439C13.6603 199.046 14.2994 200.587 15.4352 201.724C16.5711 202.861 18.1109 203.5 19.7172 203.502H108.508C110.115 203.5 111.656 202.861 112.793 201.724C113.931 200.588 114.572 199.047 114.576 197.439V35.5638C114.574 33.955 113.934 32.4127 112.796 31.2759C111.658 30.139 110.116 29.5005 108.508 29.5005Z" fill="#212529"/>
<path d="M113.723 35.5558V95.5972C111.245 97.6071 108.646 99.4626 105.94 101.153L105.72 101.288C104.554 102.016 103.363 102.718 102.154 103.377C101.199 103.918 100.227 104.426 99.247 104.908H99.2048L98.8245 105.102L98.4189 105.297C97.7766 105.61 97.1344 105.906 96.4837 106.202H96.3823L96.1034 106.329L95.7316 106.489L95.6048 106.548L95.4611 106.608L95.3682 106.65L95.1992 106.718L95.0302 106.785C94.9541 106.785 94.8696 106.853 94.7935 106.887L94.6076 106.963C94.2696 107.115 93.94 107.25 93.602 107.386L92.8076 107.699L92.4358 107.842L92.064 107.986C88.9576 109.163 85.7793 110.14 82.5485 110.912L81.1288 111.233L80.7063 111.326C80.2922 111.419 79.8612 111.504 79.4556 111.58C74.4095 112.578 69.2781 113.079 64.1345 113.077C60.4905 113.079 56.8507 112.828 53.2416 112.324C52.7345 112.257 52.2275 112.189 51.7289 112.096L51.0275 111.986L50.605 111.918L50.174 111.842H50.1064L49.2613 111.682L48.7881 111.589C48.623 111.564 48.4593 111.53 48.2979 111.487L47.5965 111.343L47.1824 111.25H47.1148C46.9881 111.25 46.8613 111.2 46.743 111.174H46.6162C46.51 111.158 46.4054 111.132 46.3036 111.098C45.8472 110.997 45.3909 110.887 44.943 110.76L44.4529 110.641L43.9543 110.515L43.2191 110.312L42.7205 110.176L42.2219 110.041C38.0786 108.849 34.042 107.313 30.1543 105.449C24.5687 102.815 19.3127 99.5306 14.4952 95.6649V35.6234C14.4952 34.2396 15.0446 32.9125 16.0224 31.934C17.0002 30.9555 18.3264 30.4058 19.7093 30.4058H108.501C109.873 30.4056 111.19 30.9458 112.167 31.9095C113.144 32.8731 113.703 34.183 113.723 35.5558Z" fill="url(#paint1_linear)"/>
<path d="M29.782 38.0752H23.8665C23.7544 38.0752 23.647 38.0306 23.5677 37.9513C23.4885 37.872 23.444 37.7645 23.444 37.6523C23.4461 37.5409 23.4913 37.4346 23.5701 37.3557C23.6489 37.2769 23.7551 37.2317 23.8665 37.2295H29.782C29.8941 37.2295 30.0015 37.274 30.0808 37.3533C30.16 37.4326 30.2045 37.5402 30.2045 37.6523C30.2045 37.7645 30.16 37.872 30.0808 37.9513C30.0015 38.0306 29.8941 38.0752 29.782 38.0752Z" fill="#FFFFFE"/>
<path d="M29.782 40.4179H23.8665C23.7544 40.4179 23.647 40.3734 23.5677 40.2941C23.4885 40.2148 23.444 40.1072 23.444 39.9951C23.444 39.883 23.4885 39.7754 23.5677 39.6961C23.647 39.6168 23.7544 39.5723 23.8665 39.5723H29.782C29.8941 39.5723 30.0015 39.6168 30.0808 39.6961C30.16 39.7754 30.2045 39.883 30.2045 39.9951C30.2045 40.1072 30.16 40.2148 30.0808 40.2941C30.0015 40.3734 29.8941 40.4179 29.782 40.4179Z" fill="#FFFFFE"/>
<path d="M29.782 42.7602H23.8665C23.7544 42.7602 23.647 42.7157 23.5677 42.6364C23.4885 42.5571 23.444 42.4495 23.444 42.3374C23.444 42.2252 23.4885 42.1177 23.5677 42.0384C23.647 41.9591 23.7544 41.9146 23.8665 41.9146H29.782C29.8941 41.9146 30.0015 41.9591 30.0808 42.0384C30.16 42.1177 30.2045 42.2252 30.2045 42.3374C30.2045 42.4495 30.16 42.5571 30.0808 42.6364C30.0015 42.7157 29.8941 42.7602 29.782 42.7602Z" fill="#FFFFFE"/>
<path d="M88.9366 129.575H39.3057C38.2972 129.575 37.3299 129.174 36.6167 128.461C35.9036 127.747 35.5029 126.779 35.5029 125.77C35.5029 124.761 35.9036 123.793 36.6167 123.079C37.3299 122.365 38.2972 121.964 39.3057 121.964H88.9535C89.9621 121.964 90.9293 122.365 91.6425 123.079C92.3556 123.793 92.7563 124.761 92.7563 125.77C92.7563 126.779 92.3556 127.747 91.6425 128.461C90.9293 129.174 89.9621 129.575 88.9535 129.575H88.9366Z" fill="#32373B"/>
<path d="M97.2606 142.911H30.9566C29.948 142.911 28.9808 142.51 28.2676 141.797C27.5545 141.083 27.1538 140.115 27.1538 139.106C27.1538 138.096 27.5545 137.129 28.2676 136.415C28.9808 135.701 29.948 135.3 30.9566 135.3H97.2606C98.2691 135.3 99.2364 135.701 99.9496 136.415C100.663 137.129 101.063 138.096 101.063 139.106C101.063 140.115 100.663 141.083 99.9496 141.797C99.2364 142.51 98.2691 142.911 97.2606 142.911Z" fill="#32373B"/>
<path d="M92.5451 150.395H35.6974C35.5854 150.395 35.4779 150.351 35.3987 150.272C35.3194 150.192 35.2749 150.085 35.2749 149.973C35.2749 149.86 35.3194 149.753 35.3987 149.674C35.4779 149.594 35.5854 149.55 35.6974 149.55H92.5451C92.6572 149.55 92.7646 149.594 92.8439 149.674C92.9231 149.753 92.9676 149.86 92.9676 149.973C92.9676 150.085 92.9231 150.192 92.8439 150.272C92.7646 150.351 92.6572 150.395 92.5451 150.395Z" fill="#32373B"/>
<path d="M92.5451 155.825H35.6974C35.5854 155.825 35.4779 155.78 35.3987 155.701C35.3194 155.622 35.2749 155.514 35.2749 155.402C35.2749 155.29 35.3194 155.182 35.3987 155.103C35.4779 155.024 35.5854 154.979 35.6974 154.979H92.5451C92.6572 154.979 92.7646 155.024 92.8439 155.103C92.9231 155.182 92.9676 155.29 92.9676 155.402C92.9676 155.514 92.9231 155.622 92.8439 155.701C92.7646 155.78 92.6572 155.825 92.5451 155.825Z" fill="#32373B"/>
<path d="M87.0859 161.246H41.1312C41.0191 161.246 40.9116 161.201 40.8324 161.122C40.7531 161.042 40.7086 160.935 40.7086 160.823C40.7086 160.711 40.7531 160.603 40.8324 160.524C40.9116 160.444 41.0191 160.4 41.1312 160.4H87.0859C87.198 160.4 87.3055 160.444 87.3847 160.524C87.464 160.603 87.5085 160.711 87.5085 160.823C87.5085 160.935 87.464 161.042 87.3847 161.122C87.3055 161.201 87.198 161.246 87.0859 161.246Z" fill="#32373B"/>
<path d="M87.4916 171.308H40.7255C37.9486 171.308 35.6974 173.561 35.6974 176.34V178.606C35.6974 181.385 37.9486 183.638 40.7255 183.638H87.4916C90.2685 183.638 92.5197 181.385 92.5197 178.606V176.34C92.5197 173.561 90.2685 171.308 87.4916 171.308Z" fill="#32373B"/>
<path d="M59.9507 195.596C60.9355 195.596 61.7338 194.797 61.7338 193.811C61.7338 192.826 60.9355 192.027 59.9507 192.027C58.9659 192.027 58.1676 192.826 58.1676 193.811C58.1676 194.797 58.9659 195.596 59.9507 195.596Z" fill="#212529"/>
<path d="M59.9507 196.018C59.5145 196.018 59.0881 195.889 58.7254 195.646C58.3626 195.404 58.08 195.059 57.913 194.656C57.7461 194.252 57.7024 193.809 57.7875 193.381C57.8726 192.952 58.0827 192.559 58.3911 192.25C58.6996 191.942 59.0926 191.732 59.5204 191.646C59.9483 191.561 60.3918 191.605 60.7948 191.772C61.1978 191.939 61.5423 192.222 61.7846 192.585C62.027 192.948 62.1563 193.375 62.1563 193.811C62.1563 194.101 62.0993 194.388 61.9884 194.656C61.8776 194.924 61.7151 195.167 61.5103 195.372C61.3055 195.577 61.0624 195.739 60.7948 195.85C60.5272 195.961 60.2404 196.018 59.9507 196.018ZM59.9507 192.45C59.6816 192.45 59.4186 192.529 59.1948 192.679C58.9711 192.829 58.7967 193.041 58.6937 193.29C58.5908 193.539 58.5638 193.813 58.6163 194.077C58.6688 194.341 58.7984 194.583 58.9887 194.774C59.1789 194.964 59.4214 195.094 59.6853 195.146C59.9492 195.199 60.2228 195.172 60.4714 195.069C60.72 194.966 60.9325 194.791 61.082 194.568C61.2315 194.344 61.3113 194.08 61.3113 193.811C61.3113 193.632 61.2761 193.455 61.2077 193.29C61.1393 193.125 61.0391 192.975 60.9128 192.848C60.7864 192.722 60.6365 192.622 60.4714 192.553C60.3063 192.485 60.1294 192.45 59.9507 192.45Z" fill="#32373B"/>
<path d="M68.2663 196.018C67.8301 196.018 67.4036 195.889 67.0409 195.646C66.6782 195.404 66.3955 195.059 66.2286 194.656C66.0616 194.252 66.0179 193.809 66.103 193.381C66.1882 192.952 66.3982 192.559 66.7067 192.25C67.0151 191.942 67.4082 191.732 67.836 191.646C68.2638 191.561 68.7073 191.605 69.1103 191.772C69.5134 191.939 69.8578 192.222 70.1002 192.585C70.3426 192.948 70.4719 193.375 70.4719 193.811C70.4719 194.101 70.4149 194.388 70.304 194.656C70.1932 194.924 70.0307 195.167 69.8259 195.372C69.6211 195.577 69.3779 195.739 69.1103 195.85C68.8427 195.961 68.5559 196.018 68.2663 196.018ZM68.2663 192.45C67.9972 192.45 67.7342 192.529 67.5104 192.679C67.2867 192.829 67.1123 193.041 67.0093 193.29C66.9063 193.539 66.8794 193.813 66.9319 194.077C66.9844 194.341 67.114 194.583 67.3042 194.774C67.4945 194.964 67.7369 195.094 68.0009 195.146C68.2648 195.199 68.5383 195.172 68.787 195.069C69.0356 194.966 69.2481 194.791 69.3976 194.568C69.5471 194.344 69.6268 194.08 69.6268 193.811C69.6268 193.632 69.5917 193.455 69.5233 193.29C69.4549 193.125 69.3547 192.975 69.2284 192.848C69.102 192.722 68.952 192.622 68.787 192.553C68.6219 192.485 68.445 192.45 68.2663 192.45Z" fill="#32373B"/>
<path d="M74.8999 40.4179H53.3254C53.2133 40.4179 53.1058 40.3734 53.0266 40.2941C52.9474 40.2148 52.9028 40.1072 52.9028 39.9951C52.9028 39.883 52.9474 39.7754 53.0266 39.6961C53.1058 39.6168 53.2133 39.5723 53.3254 39.5723H74.8999C75.012 39.5723 75.1195 39.6168 75.1987 39.6961C75.2779 39.7754 75.3225 39.883 75.3225 39.9951C75.3225 40.1072 75.2779 40.2148 75.1987 40.2941C75.1195 40.3734 75.012 40.4179 74.8999 40.4179Z" fill="#FFFFFE"/>
<path d="M33.2721 60.773C33.2721 60.773 34.489 58.8026 36.4242 56.105C36.4242 56.105 41.7735 60.6292 41.7397 60.3925C41.7059 60.1557 33.2721 60.773 33.2721 60.773Z" fill="#212529"/>
<path d="M95.0041 106.895C94.9281 106.895 94.8436 106.962 94.7675 106.996L94.5816 107.072C94.2436 107.224 93.914 107.36 93.576 107.495L92.7816 107.808L92.4098 107.952L92.0379 108.095C88.9316 109.272 85.7533 110.25 82.5225 111.021L81.1028 111.343L80.6802 111.436C80.2662 111.529 79.8352 111.613 79.4295 111.69C74.3835 112.687 69.252 113.188 64.1085 113.186C60.4644 113.189 56.8247 112.937 53.2155 112.434C52.7085 112.366 52.2015 112.298 51.7029 112.205L51.0015 112.095L50.5789 112.028L50.148 111.952H50.0803L49.2353 111.791L48.762 111.698C48.5969 111.673 48.4333 111.639 48.2719 111.596L47.5705 111.453L47.1564 111.36H47.0888C46.962 111.36 46.8353 111.309 46.717 111.284H46.5902C46.484 111.267 46.3794 111.242 46.2775 111.207C45.8212 111.106 45.3649 110.996 44.917 110.869L44.4268 110.751L43.9283 110.624L43.193 110.421L42.6945 110.286L32.9931 62.7599C32.8816 62.234 32.9137 61.6878 33.086 61.1786C33.1381 61.0403 33.1973 60.9048 33.2635 60.7727C33.2611 60.7558 33.2611 60.7387 33.2635 60.7219L33.3903 60.5697C33.6809 60.1567 34.0822 59.8342 34.548 59.6395C34.9391 59.4646 35.362 59.3725 35.7903 59.3689H36.9227L39.5086 59.3012H40.9283L54.1451 59.0137L68.5113 58.7177H69.5253L72.162 58.667L81.914 58.4556C82.8244 58.4702 83.7037 58.7897 84.4113 59.363C85.119 59.9363 85.6143 60.7303 85.8182 61.6183L86.0971 62.9629L95.0041 106.895Z" fill="#212529"/>
<path d="M89.5111 56.8153C89.2817 55.8224 88.7253 54.9357 87.9313 54.2976C87.1373 53.6595 86.152 53.3072 85.1337 53.2974L38.993 54.2699C38.4915 54.2663 37.9954 54.3745 37.5409 54.5866C37.0863 54.7987 36.6846 55.1094 36.3649 55.4961C36.3142 55.5637 36.2719 55.6314 36.2296 55.699C35.7931 56.3402 35.6094 57.1205 35.7142 57.8893C35.7193 58.0007 35.7363 58.1113 35.7649 58.2191L35.9085 58.904L35.993 59.3522L36.0944 59.8258L36.1451 60.1049L36.2381 60.5615L36.3395 61.0182L46.5817 111.225H46.7085C46.8268 111.225 46.9536 111.284 47.0803 111.301H47.1479L47.562 111.394L37.2522 60.9928L37.1592 60.5277L37.0578 60.0711V59.8174L36.9649 59.3607L36.8634 58.904L36.6944 58.0584C36.6054 57.6859 36.6054 57.2977 36.6944 56.9252C36.729 56.7697 36.7829 56.6191 36.855 56.477C36.9172 56.3335 36.9998 56.1996 37.1001 56.0796C37.3439 55.8066 37.6438 55.5897 37.9794 55.4437C38.3149 55.2978 38.678 55.2262 39.0437 55.2339L85.159 54.2276C85.2351 54.2276 85.3111 54.2276 85.3957 54.2276C86.1564 54.294 86.8769 54.5985 87.4549 55.0979C88.0328 55.5974 88.4389 56.2663 88.6154 57.0098L98.3928 105.381L98.7984 105.187L99.1787 104.992H99.221L89.5111 56.8153Z" fill="#212529"/>
<path d="M96.3564 106.311L96.0775 106.438L95.7057 106.599L95.5789 106.658L95.4353 106.717L95.3423 106.759L95.1733 106.827L95.0043 106.895C94.9282 106.895 94.8437 106.962 94.7677 106.996L94.5817 107.072C94.2437 107.225 93.9141 107.36 93.5761 107.495L92.7817 107.808L92.4099 107.952L92.0381 108.096C88.9317 109.273 85.7534 110.25 82.5226 111.022L81.1029 111.343L80.6804 111.436C80.2663 111.529 79.8353 111.613 79.4297 111.69C74.3836 112.687 69.2522 113.188 64.1086 113.186C60.4646 113.189 56.8248 112.937 53.2157 112.434C52.7086 112.366 52.2016 112.298 51.703 112.205L51.0016 112.096L50.5791 112.028L50.1481 111.952H50.0805L40.3199 64.13L85.6494 62.9038H86.1142H86.579H87.5592L96.3564 106.311Z" fill="url(#paint2_linear)"/>
<path d="M54.5594 59.3016C54.4383 59.3016 54.3223 59.2535 54.2367 59.1679C54.1511 59.0822 54.103 58.9661 54.103 58.845C54.103 58.7239 54.1511 58.6077 54.2367 58.5221C54.3223 58.4364 54.4383 58.3883 54.5594 58.3883L68.0804 58.067C68.1403 58.0659 68.1999 58.0766 68.2557 58.0985C68.3115 58.1204 68.3624 58.1531 68.4056 58.1947C68.4487 58.2363 68.4833 58.2861 68.5072 58.341C68.5312 58.396 68.5441 58.4552 68.5452 58.5152C68.5463 58.5751 68.5356 58.6347 68.5137 58.6906C68.4918 58.7464 68.4591 58.7974 68.4175 58.8406C68.3759 58.8838 68.3262 58.9183 68.2713 58.9423C68.2163 58.9663 68.1572 58.9792 68.0973 58.9803L54.5763 59.3016H54.5594Z" fill="#888888"/>
<path d="M69.9309 58.9632C69.8165 58.9549 69.7091 58.9045 69.6296 58.8218C69.55 58.7391 69.5038 58.6298 69.5 58.515C69.4988 58.455 69.5095 58.3954 69.5314 58.3396C69.5533 58.2838 69.586 58.2328 69.6276 58.1896C69.6692 58.1464 69.7189 58.1118 69.7738 58.0879C69.8288 58.0639 69.8879 58.051 69.9478 58.0499H71.7309C71.8505 58.0476 71.9662 58.0924 72.0532 58.1746C72.1401 58.2569 72.1913 58.37 72.1957 58.4896C72.198 58.5496 72.1884 58.6094 72.1675 58.6657C72.1466 58.722 72.1149 58.7736 72.0741 58.8176C72.0333 58.8616 71.9842 58.8971 71.9297 58.922C71.8751 58.947 71.8162 58.961 71.7563 58.9632H69.9647H69.9309Z" fill="#888888"/>
<path d="M55.1594 98.2019C55.0679 98.1953 54.98 98.163 54.9059 98.1089C54.8123 98.0326 54.752 97.9229 54.7378 97.803C54.7237 97.683 54.7566 97.5622 54.8298 97.4662L77.9509 67.6654C77.9874 67.6174 78.033 67.5772 78.0851 67.5469C78.1372 67.5167 78.1947 67.4971 78.2544 67.4893C78.3141 67.4814 78.3748 67.4854 78.433 67.5011C78.4911 67.5169 78.5455 67.5439 78.5932 67.5808C78.6868 67.6571 78.747 67.7668 78.7612 67.8867C78.7754 68.0067 78.7424 68.1275 78.6692 68.2235L55.5481 98.0243C55.5028 98.0834 55.4436 98.1305 55.3758 98.1615C55.3081 98.1924 55.2338 98.2063 55.1594 98.2019Z" fill="#212529"/>
<path d="M85.1591 107.673L82.5225 111.056L81.1028 111.377L84.4831 107.149C84.5194 107.102 84.5647 107.062 84.6164 107.033C84.6681 107.004 84.7251 106.985 84.784 106.978C84.843 106.971 84.9028 106.975 84.96 106.992C85.0171 107.008 85.0705 107.035 85.1169 107.073C85.1955 107.151 85.2431 107.254 85.2508 107.365C85.2586 107.475 85.226 107.585 85.1591 107.673Z" fill="#212529"/>
<path d="M68.4015 107.842C68.3132 107.833 68.2288 107.801 68.1564 107.749C68.1079 107.713 68.0669 107.668 68.0359 107.616C68.0049 107.564 67.9845 107.507 67.9759 107.447C67.9673 107.387 67.9705 107.326 67.9856 107.268C68.0006 107.209 68.0271 107.154 68.0635 107.106L73.5141 99.9605C73.5485 99.9074 73.5935 99.8621 73.6463 99.8274C73.6991 99.7927 73.7586 99.7694 73.8209 99.7588C73.8831 99.7483 73.9469 99.7508 74.0082 99.7662C74.0695 99.7817 74.1269 99.8096 74.1768 99.8484C74.2267 99.8872 74.268 99.9359 74.2981 99.9915C74.3282 100.047 74.3464 100.108 74.3517 100.171C74.3569 100.234 74.349 100.298 74.3285 100.357C74.308 100.417 74.2752 100.472 74.2324 100.519L68.7902 107.656C68.7458 107.717 68.687 107.765 68.6192 107.798C68.5514 107.83 68.4766 107.845 68.4015 107.842Z" fill="#212529"/>
<path d="M30.1206 105.508C24.5437 102.853 19.2991 99.5488 14.4952 95.6647V72.0879C15.502 72.8426 16.3086 73.8327 16.8445 74.9716C18.8642 78.8193 19.3206 83.1829 19.2276 87.5803C19.6164 83.9355 20.4952 80.4091 22.6079 77.4916C22.9259 76.9776 23.404 76.5824 23.9685 76.3669C25.5149 75.9272 26.5797 77.8975 26.8924 79.4789C28.302 86.7726 27.544 94.3198 24.7121 101.187C26.6135 97.1531 28.7347 92.8741 32.5882 90.6331C33.1375 90.3117 33.8642 90.0411 34.3797 90.4217C34.5598 90.5989 34.6992 90.8133 34.7882 91.0498C34.8773 91.2864 34.9137 91.5395 34.8952 91.7916C35.0106 96.7907 33.3147 101.663 30.1206 105.508Z" fill="#212529"/>
<path d="M113.722 77.3054V95.6645C111.244 97.6744 108.645 99.5299 105.939 101.22L105.72 101.356C104.638 99.7575 103.607 98.1169 102.618 96.4679C102.052 95.6386 101.627 94.7214 101.359 93.7534C101.231 93.2686 101.213 92.7614 101.305 92.2685C101.397 91.7756 101.597 91.3094 101.891 90.9035C101.991 90.7523 102.146 90.6461 102.322 90.6075C102.448 90.6027 102.573 90.6261 102.689 90.6758C102.804 90.7255 102.907 90.8004 102.99 90.8951C104.648 92.3061 106.058 93.9837 107.165 95.859C105.396 92.6415 103.835 89.3141 102.491 85.8972C101.943 84.6753 101.608 83.368 101.503 82.0326C101.503 80.5442 102.644 76.8318 104.748 78.3371C105.357 78.8595 105.812 79.5376 106.066 80.299C106.615 81.6182 107.165 82.9459 107.756 84.2567C106.166 79.9302 105.795 75.2496 106.683 70.7262C106.953 69.3478 108.28 65.7622 110.393 67.1153C111.114 67.7002 111.592 68.5317 111.736 69.4493C111.736 69.593 111.813 69.7283 111.855 69.8636C112.48 72.3414 113.097 74.8276 113.722 77.3054Z" fill="#212529"/>
<path d="M222.846 52.9507H134.046C131.167 52.9507 128.832 55.2867 128.832 58.1684V220.044C128.832 222.925 131.167 225.261 134.046 225.261H222.846C225.726 225.261 228.06 222.925 228.06 220.044V58.1684C228.06 55.2867 225.726 52.9507 222.846 52.9507Z" fill="#212529"/>
<path d="M222.846 52.9501C224.229 52.9501 225.555 53.4999 226.533 54.4784C227.511 55.4569 228.06 56.784 228.06 58.1678V220.043C228.058 221.426 227.508 222.752 226.53 223.73C225.553 224.708 224.228 225.258 222.846 225.261H134.046C132.663 225.261 131.337 224.711 130.359 223.732C129.382 222.754 128.832 221.427 128.832 220.043V58.1678C128.832 56.784 129.382 55.4569 130.359 54.4784C131.337 53.4999 132.663 52.9501 134.046 52.9501H222.846ZM222.846 52.1045H134.046C132.44 52.1067 130.9 52.7463 129.764 53.8829C128.629 55.0195 127.989 56.5604 127.987 58.1678V220.043C127.989 221.65 128.629 223.191 129.764 224.328C130.9 225.465 132.44 226.104 134.046 226.106H222.846C224.452 226.104 225.992 225.465 227.128 224.328C228.264 223.191 228.903 221.65 228.905 220.043V58.1678C228.903 56.5604 228.264 55.0195 227.128 53.8829C225.992 52.7463 224.452 52.1067 222.846 52.1045Z" fill="#212529"/>
<path d="M144.094 60.6796H138.179C138.067 60.6796 137.959 60.6351 137.88 60.5558C137.801 60.4765 137.756 60.369 137.756 60.2568C137.756 60.1447 137.801 60.0371 137.88 59.9578C137.959 59.8785 138.067 59.834 138.179 59.834H144.094C144.206 59.834 144.314 59.8785 144.393 59.9578C144.472 60.0371 144.517 60.1447 144.517 60.2568C144.517 60.369 144.472 60.4765 144.393 60.5558C144.314 60.6351 144.206 60.6796 144.094 60.6796Z" fill="#FFFFFE"/>
<path d="M144.094 63.0224H138.179C138.067 63.0224 137.959 62.9779 137.88 62.8986C137.801 62.8193 137.756 62.7117 137.756 62.5996C137.756 62.4874 137.801 62.3799 137.88 62.3006C137.959 62.2213 138.067 62.1768 138.179 62.1768H144.094C144.206 62.1768 144.314 62.2213 144.393 62.3006C144.472 62.3799 144.517 62.4874 144.517 62.5996C144.517 62.7117 144.472 62.8193 144.393 62.8986C144.314 62.9779 144.206 63.0224 144.094 63.0224Z" fill="#FFFFFE"/>
<path d="M144.094 65.3652H138.179C138.067 65.3652 137.959 65.3206 137.88 65.2413C137.801 65.1621 137.756 65.0545 137.756 64.9424C137.756 64.8302 137.801 64.7227 137.88 64.6434C137.959 64.5641 138.067 64.5195 138.179 64.5195H144.094C144.206 64.5195 144.314 64.5641 144.393 64.6434C144.472 64.7227 144.517 64.8302 144.517 64.9424C144.517 65.0545 144.472 65.1621 144.393 65.2413C144.314 65.3206 144.206 65.3652 144.094 65.3652Z" fill="#FFFFFE"/>
<path d="M201.829 193.913H155.063C152.286 193.913 150.035 196.165 150.035 198.944V201.211C150.035 203.99 152.286 206.242 155.063 206.242H201.829C204.606 206.242 206.857 203.99 206.857 201.211V198.944C206.857 196.165 204.606 193.913 201.829 193.913Z" fill="#32373B"/>
<path d="M157.353 96.0616H142.091C141.083 96.0616 140.116 95.6606 139.402 94.947C138.689 94.2333 138.289 93.2654 138.289 92.2561C138.289 91.2469 138.689 90.2789 139.402 89.5653C140.116 88.8516 141.083 88.4507 142.091 88.4507H157.353C158.362 88.4507 159.329 88.8516 160.042 89.5653C160.755 90.2789 161.156 91.2469 161.156 92.2561C161.156 93.2654 160.755 94.2333 160.042 94.947C159.329 95.6606 158.362 96.0616 157.353 96.0616Z" fill="#32373B"/>
<path d="M215.223 97.7535H168.88C168.057 97.7535 167.267 97.4268 166.684 96.845C166.101 96.2633 165.772 95.4739 165.77 94.65V90.1765C165.77 89.7678 165.85 89.3631 166.007 88.9855C166.163 88.608 166.392 88.2649 166.681 87.9759C166.97 87.687 167.312 87.4577 167.69 87.3013C168.067 87.1449 168.471 87.0645 168.88 87.0645H215.223C215.632 87.0645 216.036 87.1449 216.413 87.3013C216.791 87.4577 217.134 87.687 217.422 87.9759C217.711 88.2649 217.94 88.608 218.097 88.9855C218.253 89.3631 218.333 89.7678 218.333 90.1765V94.65C218.331 95.4739 218.002 96.2633 217.419 96.845C216.836 97.4268 216.047 97.7535 215.223 97.7535ZM168.88 87.9101C168.279 87.9101 167.703 88.1489 167.278 88.5739C166.854 88.9989 166.615 89.5754 166.615 90.1765V94.65C166.617 95.2496 166.857 95.8239 167.281 96.2471C167.706 96.6703 168.281 96.9079 168.88 96.9079H215.223C215.823 96.9079 216.397 96.6703 216.822 96.2471C217.246 95.8239 217.486 95.2496 217.488 94.65V90.1765C217.488 89.5754 217.25 88.9989 216.825 88.5739C216.4 88.1489 215.824 87.9101 215.223 87.9101H168.88Z" fill="#32373B"/>
<path d="M152.596 116.045H142.091C141.083 116.045 140.116 115.644 139.402 114.93C138.689 114.217 138.289 113.249 138.289 112.24C138.289 111.23 138.689 110.262 139.402 109.549C140.116 108.835 141.083 108.434 142.091 108.434H152.596C153.604 108.434 154.571 108.835 155.285 109.549C155.998 110.262 156.398 111.23 156.398 112.24C156.398 113.249 155.998 114.217 155.285 114.93C154.571 115.644 153.604 116.045 152.596 116.045Z" fill="#32373B"/>
<path d="M205.708 117.745H168.88C168.057 117.745 167.267 117.418 166.684 116.836C166.101 116.254 165.772 115.465 165.77 114.641V110.168C165.77 109.342 166.098 108.551 166.681 107.967C167.264 107.384 168.055 107.056 168.88 107.056H205.708C206.531 107.058 207.32 107.387 207.901 107.97C208.483 108.554 208.809 109.344 208.809 110.168V114.641C208.807 115.464 208.48 116.252 207.899 116.833C207.317 117.415 206.53 117.742 205.708 117.745ZM168.88 107.901C168.279 107.901 167.703 108.14 167.278 108.565C166.854 108.99 166.615 109.567 166.615 110.168V114.641C166.617 115.241 166.857 115.815 167.281 116.238C167.706 116.661 168.281 116.899 168.88 116.899H205.708C206.306 116.897 206.878 116.658 207.301 116.235C207.724 115.812 207.962 115.239 207.964 114.641V110.168C207.964 109.568 207.727 108.993 207.304 108.568C206.881 108.143 206.307 107.904 205.708 107.901H168.88Z" fill="#32373B"/>
<path d="M151.404 136.036H142.108C141.1 136.036 140.132 135.635 139.419 134.922C138.706 134.208 138.305 133.24 138.305 132.231C138.305 131.221 138.706 130.254 139.419 129.54C140.132 128.826 141.1 128.425 142.108 128.425H151.404C152.413 128.425 153.38 128.826 154.093 129.54C154.806 130.254 155.207 131.221 155.207 132.231C155.207 133.24 154.806 134.208 154.093 134.922C153.38 135.635 152.413 136.036 151.404 136.036Z" fill="#32373B"/>
<path d="M210.998 137.736H168.88C168.055 137.736 167.264 137.408 166.681 136.824C166.098 136.241 165.77 135.449 165.77 134.624V130.15C165.772 129.327 166.101 128.537 166.684 127.955C167.267 127.374 168.057 127.047 168.88 127.047H210.998C211.821 127.047 212.611 127.374 213.194 127.955C213.777 128.537 214.106 129.327 214.108 130.15V134.624C214.108 135.449 213.78 136.241 213.197 136.824C212.614 137.408 211.823 137.736 210.998 137.736ZM168.88 127.893C168.281 127.893 167.706 128.13 167.281 128.553C166.857 128.977 166.617 129.551 166.615 130.15V134.624C166.615 135.225 166.854 135.801 167.278 136.226C167.703 136.652 168.279 136.89 168.88 136.89H210.998C211.599 136.89 212.175 136.652 212.599 136.226C213.024 135.801 213.263 135.225 213.263 134.624V130.15C213.261 129.551 213.021 128.977 212.596 128.553C212.172 128.13 211.597 127.893 210.998 127.893H168.88Z" fill="#32373B"/>
<path d="M157.353 156.028H142.091C141.083 156.028 140.116 155.627 139.402 154.913C138.689 154.2 138.289 153.232 138.289 152.222C138.289 151.213 138.689 150.245 139.402 149.532C140.116 148.818 141.083 148.417 142.091 148.417H157.353C158.362 148.417 159.329 148.818 160.042 149.532C160.755 150.245 161.156 151.213 161.156 152.222C161.156 153.232 160.755 154.2 160.042 154.913C159.329 155.627 158.362 156.028 157.353 156.028Z" fill="#32373B"/>
<path d="M215.223 157.727H168.88C168.471 157.727 168.067 157.647 167.69 157.49C167.312 157.334 166.97 157.105 166.681 156.816C166.392 156.527 166.163 156.184 166.007 155.806C165.85 155.429 165.77 155.024 165.77 154.615V150.142C165.772 149.318 166.101 148.528 166.684 147.947C167.267 147.365 168.057 147.038 168.88 147.038H215.223C216.047 147.038 216.836 147.365 217.419 147.947C218.002 148.528 218.331 149.318 218.333 150.142V154.615C218.333 155.024 218.253 155.429 218.097 155.806C217.94 156.184 217.711 156.527 217.422 156.816C217.134 157.105 216.791 157.334 216.413 157.49C216.036 157.647 215.632 157.727 215.223 157.727ZM168.88 147.884C168.281 147.884 167.706 148.121 167.281 148.545C166.857 148.968 166.617 149.542 166.615 150.142V154.615C166.615 155.216 166.854 155.793 167.278 156.218C167.703 156.643 168.279 156.882 168.88 156.882H215.223C215.824 156.882 216.4 156.643 216.825 156.218C217.25 155.793 217.488 155.216 217.488 154.615V150.142C217.486 149.542 217.246 148.968 216.822 148.545C216.397 148.121 215.823 147.884 215.223 147.884H168.88Z" fill="#32373B"/>
<path d="M152.596 176.002H142.091C141.083 176.002 140.116 175.601 139.402 174.887C138.689 174.173 138.289 173.205 138.289 172.196C138.289 171.187 138.689 170.219 139.402 169.505C140.116 168.792 141.083 168.391 142.091 168.391H152.596C153.604 168.391 154.571 168.792 155.285 169.505C155.998 170.219 156.398 171.187 156.398 172.196C156.398 173.205 155.998 174.173 155.285 174.887C154.571 175.601 153.604 176.002 152.596 176.002Z" fill="#32373B"/>
<path d="M198.93 177.693H168.88C168.472 177.694 168.068 177.614 167.69 177.459C167.313 177.304 166.97 177.075 166.681 176.787C166.393 176.499 166.163 176.156 166.007 175.779C165.851 175.402 165.77 174.998 165.77 174.589V170.116C165.77 169.707 165.851 169.303 166.007 168.926C166.163 168.549 166.393 168.207 166.681 167.918C166.97 167.63 167.313 167.402 167.69 167.246C168.068 167.091 168.472 167.011 168.88 167.012H198.93C199.753 167.012 200.542 167.339 201.123 167.921C201.705 168.503 202.032 169.293 202.032 170.116V174.589C202.032 175.412 201.705 176.202 201.123 176.784C200.542 177.366 199.753 177.693 198.93 177.693ZM168.88 167.858C168.281 167.858 167.706 168.095 167.281 168.519C166.857 168.942 166.617 169.516 166.615 170.116V174.589C166.617 175.189 166.857 175.763 167.281 176.186C167.706 176.61 168.281 176.847 168.88 176.847H198.93C199.227 176.847 199.52 176.789 199.794 176.675C200.068 176.562 200.316 176.396 200.526 176.186C200.735 175.976 200.902 175.727 201.015 175.453C201.128 175.179 201.187 174.886 201.187 174.589V170.116C201.187 169.819 201.128 169.526 201.015 169.252C200.902 168.978 200.735 168.729 200.526 168.519C200.316 168.31 200.068 168.143 199.794 168.03C199.52 167.916 199.227 167.858 198.93 167.858H168.88Z" fill="#32373B"/>
<path d="M182.604 218.2C183.589 218.2 184.387 217.401 184.387 216.416C184.387 215.43 183.589 214.631 182.604 214.631C181.619 214.631 180.821 215.43 180.821 216.416C180.821 217.401 181.619 218.2 182.604 218.2Z" fill="#212529"/>
<path d="M182.604 218.623C182.168 218.623 181.741 218.493 181.379 218.251C181.016 218.008 180.733 217.664 180.566 217.26C180.399 216.857 180.356 216.413 180.441 215.985C180.526 215.557 180.736 215.164 181.044 214.855C181.353 214.546 181.746 214.336 182.174 214.251C182.601 214.166 183.045 214.209 183.448 214.377C183.851 214.544 184.195 214.826 184.438 215.189C184.68 215.552 184.81 215.979 184.81 216.416C184.81 216.706 184.752 216.993 184.642 217.26C184.531 217.528 184.368 217.771 184.164 217.976C183.959 218.181 183.716 218.344 183.448 218.455C183.18 218.566 182.894 218.623 182.604 218.623ZM182.604 215.054C182.335 215.054 182.072 215.134 181.848 215.284C181.624 215.433 181.45 215.646 181.347 215.895C181.244 216.143 181.217 216.417 181.27 216.681C181.322 216.945 181.452 217.188 181.642 217.378C181.832 217.569 182.075 217.698 182.338 217.751C182.602 217.804 182.876 217.777 183.125 217.674C183.373 217.57 183.586 217.396 183.735 217.172C183.885 216.948 183.964 216.685 183.964 216.416C183.964 216.055 183.821 215.708 183.566 215.453C183.311 215.198 182.965 215.054 182.604 215.054Z" fill="#32373B"/>
<path d="M174.289 218.623C173.852 218.623 173.426 218.493 173.063 218.251C172.7 218.008 172.418 217.664 172.251 217.26C172.084 216.857 172.04 216.413 172.125 215.985C172.21 215.557 172.42 215.164 172.729 214.855C173.037 214.546 173.43 214.336 173.858 214.251C174.286 214.166 174.73 214.209 175.133 214.377C175.536 214.544 175.88 214.826 176.122 215.189C176.365 215.552 176.494 215.979 176.494 216.416C176.494 216.706 176.437 216.993 176.326 217.26C176.215 217.528 176.053 217.771 175.848 217.976C175.643 218.181 175.4 218.344 175.133 218.455C174.865 218.566 174.578 218.623 174.289 218.623ZM174.289 215.054C174.019 215.054 173.756 215.134 173.533 215.284C173.309 215.433 173.134 215.646 173.032 215.895C172.929 216.143 172.902 216.417 172.954 216.681C173.007 216.945 173.136 217.188 173.326 217.378C173.517 217.569 173.759 217.698 174.023 217.751C174.287 217.804 174.561 217.777 174.809 217.674C175.058 217.57 175.27 217.396 175.42 217.172C175.569 216.948 175.649 216.685 175.649 216.416C175.649 216.055 175.506 215.708 175.251 215.453C174.995 215.198 174.649 215.054 174.289 215.054Z" fill="#32373B"/>
<path d="M189.229 63.0224H167.655C167.543 63.0224 167.435 62.9779 167.356 62.8986C167.277 62.8193 167.232 62.7117 167.232 62.5996C167.234 62.4881 167.28 62.3818 167.358 62.303C167.437 62.2242 167.543 62.1789 167.655 62.1768H189.229C189.341 62.1768 189.449 62.2213 189.528 62.3006C189.607 62.3799 189.652 62.4874 189.652 62.5996C189.652 62.7117 189.607 62.8193 189.528 62.8986C189.449 62.9779 189.341 63.0224 189.229 63.0224Z" fill="#FFFFFE"/>
<defs>
<linearGradient id="paint0_linear" x1="16.4125" y1="138.027" x2="224.624" y2="142.921" gradientUnits="userSpaceOnUse">
<stop stop-color="#883FFF"/>
<stop offset="1" stop-color="#E21EE2"/>
</linearGradient>
<linearGradient id="paint1_linear" x1="64.1091" y1="30.4058" x2="64.1091" y2="113.077" gradientUnits="userSpaceOnUse">
<stop stop-color="#7373FF"/>
<stop offset="1" stop-color="#3B28EA"/>
</linearGradient>
<linearGradient id="paint2_linear" x1="68.3382" y1="62.9038" x2="68.3382" y2="113.186" gradientUnits="userSpaceOnUse">
<stop stop-color="#7373FF"/>
<stop offset="1" stop-color="#3B28EA"/>
</linearGradient>
</defs>
</svg>
