<svg width="252" height="252" viewBox="0 0 252 252" fill="none" xmlns="http://www.w3.org/2000/svg">
<circle opacity="0.5" cx="126" cy="126" r="126" fill="url(#paint0_linear)"/>
<path d="M111.703 35.0551V194.658C111.701 196.023 111.157 197.331 110.192 198.296C109.226 199.26 107.918 199.802 106.554 199.802H19.009C17.6456 199.802 16.338 199.26 15.3739 198.295C14.4098 197.331 13.8682 196.022 13.8682 194.658V35.0551C13.8682 33.6907 14.4098 32.3822 15.3739 31.4174C16.338 30.4526 17.6456 29.9106 19.009 29.9106H106.554C107.918 29.9106 109.226 30.4524 110.192 31.4169C111.157 32.3814 111.701 33.6899 111.703 35.0551Z" fill="#FFFFFE"/>
<path d="M106.553 29.9109C107.917 29.9109 109.226 30.4527 110.191 31.4172C111.157 32.3817 111.7 33.6902 111.702 35.0554V194.658C111.7 196.023 111.157 197.332 110.191 198.296C109.226 199.261 107.917 199.803 106.553 199.803H19.0083C17.6449 199.803 16.3373 199.261 15.3732 198.296C14.4091 197.331 13.8674 196.022 13.8674 194.658V35.0554C13.8674 33.691 14.4091 32.3825 15.3732 31.4177C16.3373 30.4529 17.6449 29.9109 19.0083 29.9109H106.553ZM106.553 29.0771H19.0083C17.4239 29.0771 15.9044 29.707 14.784 30.8281C13.6636 31.9493 13.0342 33.4698 13.0342 35.0554V194.658C13.0364 196.243 13.6666 197.762 14.7864 198.883C15.9063 200.004 17.4246 200.634 19.0083 200.636H106.553C108.138 200.634 109.657 200.004 110.778 198.883C111.899 197.763 112.531 196.244 112.535 194.658V35.0554C112.533 33.4691 111.902 31.9485 110.78 30.8276C109.659 29.7067 108.138 29.0771 106.553 29.0771Z" fill="#888888"/>
<path d="M111.695 35.047V94.2455C109.251 96.2272 106.688 98.0566 104.021 99.7235L103.804 99.8569C102.654 100.574 101.479 101.266 100.288 101.916C99.3465 102.45 98.3883 102.95 97.4218 103.425H97.3801L97.0052 103.617L96.6052 103.809C95.972 104.118 95.3388 104.409 94.6972 104.701H94.5972L94.3223 104.826L93.9557 104.985L93.8307 105.043L93.689 105.101L93.5974 105.143L93.4307 105.21L93.2641 105.276C93.1891 105.276 93.1058 105.343 93.0308 105.377L92.8475 105.452C92.5142 105.602 92.1893 105.735 91.856 105.868L91.0728 106.177L90.7062 106.319L90.3395 106.46C87.2768 107.621 84.1431 108.585 80.9577 109.345L79.5579 109.662L79.1413 109.754C78.733 109.846 78.3081 109.929 77.9081 110.004C72.9329 110.988 67.8735 111.482 62.8022 111.48C59.2093 111.482 55.6206 111.234 52.0621 110.738C51.5622 110.671 51.0623 110.604 50.5707 110.513L49.8792 110.404L49.4626 110.338L49.0376 110.263H48.971L48.1378 110.104L47.6712 110.012C47.5084 109.988 47.347 109.954 47.1879 109.912L46.4963 109.771L46.0881 109.679H46.0214C45.8964 109.679 45.7715 109.629 45.6548 109.604H45.5298C45.4251 109.588 45.322 109.563 45.2215 109.529C44.7716 109.429 44.3217 109.32 43.8801 109.195L43.3968 109.079L42.9052 108.953L42.1803 108.753L41.6888 108.62L41.1972 108.487C37.112 107.312 33.1321 105.797 29.299 103.959C23.7917 101.362 18.6096 98.1237 13.8597 94.3122V35.1137C13.8597 33.7493 14.4014 32.4408 15.3655 31.476C16.3296 30.5112 17.6372 29.9692 19.0006 29.9692H106.545C107.898 29.9691 109.197 30.5017 110.16 31.4518C111.124 32.402 111.675 33.6934 111.695 35.047Z" fill="url(#paint1_linear)"/>
<path d="M28.9318 37.5311H23.0994C22.9889 37.5311 22.8829 37.4871 22.8048 37.4089C22.7267 37.3308 22.6828 37.2247 22.6828 37.1142C22.6849 37.0043 22.7295 36.8995 22.8072 36.8217C22.8848 36.744 22.9896 36.6994 23.0994 36.6973H28.9318C29.0423 36.6973 29.1483 36.7412 29.2264 36.8194C29.3046 36.8976 29.3484 37.0036 29.3484 37.1142C29.3484 37.2247 29.3046 37.3308 29.2264 37.4089C29.1483 37.4871 29.0423 37.5311 28.9318 37.5311Z" fill="#FFFFFE"/>
<path d="M28.9318 39.8411H23.0994C22.9889 39.8411 22.8829 39.7972 22.8048 39.719C22.7267 39.6408 22.6828 39.5348 22.6828 39.4242C22.6828 39.3137 22.7267 39.2076 22.8048 39.1294C22.8829 39.0512 22.9889 39.0073 23.0994 39.0073H28.9318C29.0423 39.0073 29.1483 39.0512 29.2264 39.1294C29.3046 39.2076 29.3484 39.3137 29.3484 39.4242C29.3484 39.5348 29.3046 39.6408 29.2264 39.719C29.1483 39.7972 29.0423 39.8411 28.9318 39.8411Z" fill="#FFFFFE"/>
<path d="M28.9318 42.1507H23.0994C22.9889 42.1507 22.8829 42.1068 22.8048 42.0286C22.7267 41.9504 22.6828 41.8444 22.6828 41.7338C22.6828 41.6232 22.7267 41.5172 22.8048 41.439C22.8829 41.3608 22.9889 41.3169 23.0994 41.3169H28.9318C29.0423 41.3169 29.1483 41.3608 29.2264 41.439C29.3046 41.5172 29.3484 41.6232 29.3484 41.7338C29.3484 41.8444 29.3046 41.9504 29.2264 42.0286C29.1483 42.1068 29.0423 42.1507 28.9318 42.1507Z" fill="#FFFFFE"/>
<path d="M87.2561 127.747H38.322C37.3276 127.747 36.3739 127.351 35.6707 126.648C34.9676 125.944 34.5726 124.99 34.5726 123.995C34.5726 123 34.9676 122.045 35.6707 121.342C36.3739 120.638 37.3276 120.243 38.322 120.243H87.2728C88.2672 120.243 89.2209 120.638 89.924 121.342C90.6272 122.045 91.0222 123 91.0222 123.995C91.0222 124.99 90.6272 125.944 89.924 126.648C89.2209 127.351 88.2672 127.747 87.2728 127.747H87.2561Z" fill="#888888"/>
<path d="M95.463 140.896H30.0899C29.0955 140.896 28.1418 140.5 27.4386 139.797C26.7355 139.093 26.3405 138.139 26.3405 137.144C26.3405 136.149 26.7355 135.194 27.4386 134.491C28.1418 133.787 29.0955 133.392 30.0899 133.392H95.463C96.4575 133.392 97.4111 133.787 98.1143 134.491C98.8174 135.194 99.2125 136.149 99.2125 137.144C99.2125 138.139 98.8174 139.093 98.1143 139.797C97.4111 140.5 96.4575 140.896 95.463 140.896Z" fill="#888888"/>
<path d="M90.8139 148.275H34.7643C34.6538 148.275 34.5479 148.231 34.4697 148.153C34.3916 148.074 34.3477 147.968 34.3477 147.858C34.3477 147.747 34.3916 147.641 34.4697 147.563C34.5479 147.485 34.6538 147.441 34.7643 147.441H90.8139C90.9244 147.441 91.0304 147.485 91.1085 147.563C91.1867 147.641 91.2305 147.747 91.2305 147.858C91.2305 147.968 91.1867 148.074 91.1085 148.153C91.0304 148.231 90.9244 148.275 90.8139 148.275Z" fill="#888888"/>
<path d="M90.8139 153.627H34.7643C34.6538 153.627 34.5479 153.583 34.4697 153.505C34.3916 153.427 34.3477 153.321 34.3477 153.21C34.3477 153.1 34.3916 152.994 34.4697 152.916C34.5479 152.837 34.6538 152.793 34.7643 152.793H90.8139C90.9244 152.793 91.0304 152.837 91.1085 152.916C91.1867 152.994 91.2305 153.1 91.2305 153.21C91.2305 153.321 91.1867 153.427 91.1085 153.505C91.0304 153.583 90.9244 153.627 90.8139 153.627Z" fill="#888888"/>
<path d="M85.4313 158.972H40.1217C40.0112 158.972 39.9052 158.928 39.8271 158.85C39.749 158.772 39.7051 158.666 39.7051 158.555C39.7051 158.445 39.749 158.338 39.8271 158.26C39.9052 158.182 40.0112 158.138 40.1217 158.138H85.4313C85.5418 158.138 85.6478 158.182 85.7259 158.26C85.804 158.338 85.8479 158.445 85.8479 158.555C85.8479 158.666 85.804 158.772 85.7259 158.85C85.6478 158.928 85.5418 158.972 85.4313 158.972Z" fill="#888888"/>
<path d="M85.8314 168.894H39.7218C36.9839 168.894 34.7643 171.115 34.7643 173.855V176.09C34.7643 178.829 36.9839 181.051 39.7218 181.051H85.8314C88.5693 181.051 90.7889 178.829 90.7889 176.09V173.855C90.7889 171.115 88.5693 168.894 85.8314 168.894Z" fill="url(#paint2_linear)"/>
<path d="M58.6772 192.84C59.6481 192.84 60.4352 192.052 60.4352 191.081C60.4352 190.109 59.6481 189.321 58.6772 189.321C57.7062 189.321 56.9191 190.109 56.9191 191.081C56.9191 192.052 57.7062 192.84 58.6772 192.84Z" fill="#FFFFFE"/>
<path d="M58.6771 193.257C58.247 193.257 57.8265 193.129 57.4689 192.89C57.1113 192.651 56.8326 192.311 56.668 191.914C56.5034 191.516 56.4603 191.079 56.5442 190.656C56.6281 190.234 56.8353 189.847 57.1394 189.542C57.4435 189.238 57.831 189.031 58.2528 188.947C58.6747 188.863 59.1119 188.906 59.5093 189.07C59.9066 189.235 60.2463 189.514 60.4852 189.872C60.7242 190.23 60.8517 190.651 60.8517 191.081C60.8517 191.367 60.7955 191.65 60.6862 191.914C60.5769 192.178 60.4167 192.418 60.2148 192.62C60.0129 192.822 59.7731 192.982 59.5093 193.091C59.2454 193.201 58.9627 193.257 58.6771 193.257ZM58.6771 189.739C58.4118 189.739 58.1524 189.817 57.9318 189.965C57.7112 190.112 57.5393 190.322 57.4377 190.567C57.3362 190.813 57.3097 191.082 57.3614 191.343C57.4132 191.603 57.5409 191.842 57.7285 192.03C57.9161 192.218 58.1552 192.346 58.4154 192.398C58.6756 192.449 58.9453 192.423 59.1904 192.321C59.4356 192.22 59.6451 192.047 59.7925 191.827C59.9399 191.606 60.0185 191.346 60.0185 191.081C60.0185 190.905 59.9838 190.73 59.9164 190.567C59.849 190.404 59.7502 190.256 59.6256 190.132C59.5011 190.007 59.3532 189.908 59.1904 189.841C59.0277 189.773 58.8532 189.739 58.6771 189.739Z" fill="#888888"/>
<path d="M66.8759 193.257C66.4458 193.257 66.0253 193.129 65.6677 192.89C65.3101 192.651 65.0314 192.311 64.8668 191.914C64.7022 191.516 64.6591 191.079 64.743 190.656C64.8269 190.234 65.0341 189.847 65.3382 189.542C65.6423 189.238 66.0298 189.031 66.4516 188.947C66.8735 188.863 67.3107 188.906 67.7081 189.07C68.1055 189.235 68.4451 189.514 68.6841 189.872C68.923 190.23 69.0506 190.651 69.0506 191.081C69.0506 191.367 68.9943 191.65 68.885 191.914C68.7757 192.178 68.6156 192.418 68.4136 192.62C68.2117 192.822 67.9719 192.982 67.7081 193.091C67.4443 193.201 67.1615 193.257 66.8759 193.257ZM66.8759 189.739C66.6106 189.739 66.3512 189.817 66.1306 189.965C65.91 190.112 65.7381 190.322 65.6365 190.567C65.535 190.813 65.5085 191.082 65.5602 191.343C65.612 191.603 65.7397 191.842 65.9273 192.03C66.115 192.218 66.354 192.346 66.6142 192.398C66.8744 192.449 67.1441 192.423 67.3893 192.321C67.6344 192.22 67.8439 192.047 67.9913 191.827C68.1387 191.606 68.2174 191.346 68.2174 191.081C68.2174 190.905 68.1827 190.73 68.1152 190.567C68.0478 190.404 67.949 190.256 67.8245 190.132C67.6999 190.007 67.552 189.908 67.3893 189.841C67.2265 189.773 67.0521 189.739 66.8759 189.739Z" fill="#888888"/>
<path d="M73.4164 39.8411H52.1448C52.0343 39.8411 51.9283 39.7972 51.8502 39.719C51.772 39.6408 51.7281 39.5348 51.7281 39.4242C51.7281 39.3137 51.772 39.2076 51.8502 39.1294C51.9283 39.0512 52.0343 39.0073 52.1448 39.0073H73.4164C73.5269 39.0073 73.6329 39.0512 73.711 39.1294C73.7892 39.2076 73.833 39.3137 73.833 39.4242C73.833 39.5348 73.7892 39.6408 73.711 39.719C73.6329 39.7972 73.5269 39.8411 73.4164 39.8411Z" fill="#FFFFFE"/>
<path d="M32.3729 59.9101C32.3729 59.9101 33.5727 57.9674 35.4807 55.3076C35.4807 55.3076 40.7549 59.7684 40.7216 59.5349C40.6882 59.3014 32.3729 59.9101 32.3729 59.9101Z" fill="#32373B"/>
<path d="M93.2385 105.385C93.1635 105.385 93.0802 105.451 93.0052 105.485L92.8219 105.56C92.4886 105.71 92.1636 105.843 91.8304 105.977L91.0471 106.285L90.6805 106.427L90.3139 106.569C87.2512 107.729 84.1175 108.693 80.932 109.453L79.5323 109.77L79.1157 109.862C78.7074 109.954 78.2825 110.037 77.8825 110.112C72.9073 111.096 67.8479 111.59 62.7765 111.588C59.1837 111.59 55.595 111.342 52.0365 110.846C51.5366 110.779 51.0367 110.712 50.5451 110.621L49.8535 110.512L49.4369 110.446L49.012 110.371H48.9453L48.1121 110.212L47.6455 110.12C47.4827 110.096 47.3214 110.063 47.1623 110.02L46.4707 109.879L46.0624 109.787H45.9958C45.8708 109.787 45.7458 109.737 45.6292 109.712H45.5042C45.3995 109.696 45.2963 109.671 45.1959 109.637C44.746 109.537 44.2961 109.428 43.8545 109.303L43.3712 109.187L42.8796 109.062L42.1547 108.861L41.6631 108.728L32.0979 61.8694C31.988 61.3509 32.0197 60.8123 32.1896 60.3103C32.2409 60.1739 32.2993 60.0403 32.3646 59.9101C32.3622 59.8935 32.3622 59.8766 32.3646 59.86L32.4896 59.7099C32.7761 59.3027 33.1718 58.9848 33.631 58.7928C34.0166 58.6204 34.4336 58.5296 34.8558 58.526H35.9723L38.5219 58.4593H39.9217L52.953 58.1758L67.1175 57.884H68.1174L70.717 57.8339L80.3321 57.6255C81.2297 57.6399 82.0966 57.9549 82.7944 58.5202C83.4921 59.0854 83.9805 59.8683 84.1815 60.7438L84.4565 62.0696L93.2385 105.385Z" fill="#32373B"/>
<path d="M87.8225 56.0081C87.5963 55.0292 87.0477 54.1549 86.2649 53.5257C85.482 52.8966 84.5105 52.5493 83.5065 52.5396L38.0136 53.4984C37.5191 53.4949 37.03 53.6016 36.5818 53.8107C36.1337 54.0198 35.7376 54.3261 35.4223 54.7074C35.3723 54.7741 35.3307 54.8408 35.289 54.9075C34.8586 55.5397 34.6775 56.309 34.7808 57.067C34.7858 57.1769 34.8026 57.2859 34.8308 57.3922L34.9724 58.0675L35.0557 58.5094L35.1557 58.9764L35.2057 59.2515L35.2974 59.7017L35.3973 60.152L45.4958 109.654H45.6208C45.7374 109.654 45.8624 109.712 45.9874 109.729H46.054L46.4623 109.82L36.2972 60.127L36.2055 59.6684L36.1056 59.2182V58.968L36.0139 58.5178L35.9139 58.0675L35.7473 57.2337C35.6595 56.8665 35.6595 56.4837 35.7473 56.1165C35.7814 55.9631 35.8345 55.8147 35.9056 55.6746C35.9669 55.533 36.0483 55.4011 36.1472 55.2827C36.3876 55.0136 36.6834 54.7997 37.0142 54.6558C37.345 54.5119 37.703 54.4413 38.0636 54.4489L83.5315 53.4567C83.6065 53.4567 83.6815 53.4567 83.7648 53.4567C84.5149 53.5222 85.2253 53.8224 85.7951 54.3148C86.365 54.8073 86.7653 55.4668 86.9393 56.1999L96.5795 103.892L96.9794 103.7L97.3544 103.509H97.396L87.8225 56.0081Z" fill="#32373B"/>
<path d="M94.5717 104.809L94.2967 104.934L93.9301 105.093L93.8051 105.151L93.6635 105.21L93.5718 105.251L93.4052 105.318L93.2386 105.385C93.1636 105.385 93.0802 105.451 93.0053 105.485L92.822 105.56C92.4887 105.71 92.1637 105.843 91.8304 105.977L91.0472 106.285L90.6806 106.427L90.314 106.569C87.2512 107.729 84.1176 108.693 80.9321 109.453L79.5323 109.77L79.1157 109.862C78.7075 109.954 78.2825 110.037 77.8826 110.112C72.9074 111.096 67.848 111.59 62.7766 111.588C59.1837 111.59 55.5951 111.342 52.0366 110.846C51.5367 110.779 51.0368 110.712 50.5452 110.621L49.8536 110.512L49.437 110.446L49.0121 110.371H48.9454L39.3219 63.2202L84.015 62.0112H84.4732H84.9315H85.898L94.5717 104.809Z" fill="url(#paint3_linear)"/>
<path d="M53.3614 58.4596C53.2421 58.4596 53.1277 58.4121 53.0433 58.3277C52.9589 58.2433 52.9115 58.1288 52.9115 58.0093C52.9115 57.8899 52.9589 57.7754 53.0433 57.691C53.1277 57.6065 53.2421 57.5591 53.3614 57.5591L66.6926 57.2423C66.7517 57.2412 66.8105 57.2517 66.8655 57.2733C66.9205 57.2949 66.9707 57.3272 67.0133 57.3682C67.0558 57.4093 67.0899 57.4583 67.1135 57.5125C67.1371 57.5667 67.1498 57.625 67.1509 57.6842C67.152 57.7433 67.1415 57.8021 67.1199 57.8571C67.0983 57.9122 67.066 57.9624 67.025 58.005C66.984 58.0476 66.935 58.0817 66.8809 58.1053C66.8267 58.1289 66.7684 58.1417 66.7093 58.1428L53.3781 58.4596H53.3614Z" fill="#FFFFFE"/>
<path d="M68.5173 58.1262C68.4045 58.118 68.2986 58.0683 68.2202 57.9867C68.1417 57.9052 68.0962 57.7974 68.0924 57.6842C68.0913 57.6251 68.1018 57.5664 68.1234 57.5113C68.145 57.4563 68.1772 57.406 68.2182 57.3634C68.2592 57.3208 68.3082 57.2868 68.3624 57.2631C68.4166 57.2395 68.4749 57.2268 68.534 57.2257H70.292C70.4099 57.2234 70.524 57.2676 70.6098 57.3487C70.6955 57.4298 70.7459 57.5413 70.7503 57.6592C70.7525 57.7184 70.743 57.7774 70.7225 57.8328C70.7019 57.8883 70.6706 57.9392 70.6304 57.9826C70.5901 58.0259 70.5417 58.0609 70.488 58.0856C70.4342 58.1102 70.3761 58.124 70.317 58.1262H68.5506H68.5173Z" fill="#FFFFFE"/>
<path d="M53.953 96.8137C53.8628 96.8071 53.7761 96.7754 53.7031 96.722C53.6108 96.6468 53.5514 96.5386 53.5374 96.4203C53.5234 96.3021 53.5559 96.183 53.6281 96.0883L76.4246 66.7058C76.4605 66.6585 76.5055 66.6188 76.5569 66.5891C76.6082 66.5593 76.665 66.5399 76.7238 66.5322C76.7827 66.5244 76.8425 66.5284 76.8998 66.5439C76.9571 66.5594 77.0108 66.5861 77.0578 66.6224C77.1501 66.6976 77.2095 66.8058 77.2235 66.9241C77.2375 67.0423 77.205 67.1614 77.1328 67.2561L54.3363 96.6386C54.2915 96.6969 54.2332 96.7433 54.1664 96.7738C54.0996 96.8043 54.0263 96.818 53.953 96.8137Z" fill="#FFFFFE"/>
<path d="M83.5317 106.152L80.9321 109.487L79.5323 109.804L82.8651 105.635C82.901 105.589 82.9456 105.55 82.9966 105.521C83.0475 105.492 83.1037 105.474 83.1619 105.467C83.22 105.46 83.279 105.464 83.3353 105.48C83.3917 105.496 83.4443 105.523 83.49 105.56C83.5675 105.637 83.6145 105.739 83.6221 105.848C83.6298 105.957 83.5976 106.065 83.5317 106.152Z" fill="#FFFFFE"/>
<path d="M67.0092 106.318C66.9221 106.309 66.8389 106.277 66.7676 106.227C66.7197 106.191 66.6794 106.147 66.6488 106.096C66.6182 106.044 66.5981 105.988 66.5896 105.929C66.5811 105.87 66.5843 105.81 66.5991 105.752C66.614 105.694 66.6401 105.64 66.676 105.593L72.0501 98.5474C72.084 98.4951 72.1284 98.4504 72.1805 98.4162C72.2325 98.382 72.2911 98.359 72.3525 98.3486C72.4139 98.3382 72.4768 98.3407 72.5372 98.3559C72.5976 98.3711 72.6542 98.3987 72.7034 98.4369C72.7526 98.4751 72.7933 98.5232 72.823 98.578C72.8527 98.6327 72.8707 98.6931 72.8759 98.7552C72.881 98.8173 72.8732 98.8798 72.853 98.9388C72.8328 98.9977 72.8005 99.0518 72.7583 99.0977L67.3925 106.135C67.3487 106.195 67.2907 106.243 67.2239 106.275C67.157 106.307 67.0833 106.322 67.0092 106.318Z" fill="#FFFFFE"/>
<path d="M29.2657 104.017C23.7672 101.399 18.5962 98.1418 13.8597 94.3123V71.0664C14.8524 71.8105 15.6477 72.7867 16.1761 73.9096C18.1674 77.7033 18.6173 82.0056 18.5257 86.3413C18.909 82.7477 19.7755 79.2708 21.8585 76.3943C22.1721 75.8874 22.6434 75.4978 23.2 75.2853C24.7247 74.8518 25.7746 76.7945 26.0829 78.3537C27.4726 85.545 26.7253 92.9862 23.9332 99.7569C25.8079 95.7797 27.8993 91.5608 31.6987 89.3513C32.2403 89.0344 32.9568 88.7676 33.4651 89.1428C33.6426 89.3176 33.7801 89.5289 33.8679 89.7622C33.9556 89.9954 33.9916 90.245 33.9733 90.4935C34.0871 95.4224 32.415 100.226 29.2657 104.017Z" fill="#32373B"/>
<path d="M111.694 76.2109V94.3123C109.251 96.294 106.688 98.1234 104.02 99.7902L103.803 99.9236C102.737 98.3478 101.72 96.7303 100.746 95.1044C100.187 94.2867 99.7679 93.3824 99.5041 92.4279C99.378 91.9499 99.3597 91.4499 99.4505 90.9639C99.5413 90.4779 99.7389 90.0182 100.029 89.6181C100.127 89.469 100.28 89.3643 100.454 89.3263C100.578 89.3215 100.701 89.3445 100.815 89.3936C100.929 89.4426 101.03 89.5165 101.112 89.6098C102.746 91.001 104.138 92.6551 105.228 94.5041C103.485 91.3317 101.946 88.051 100.621 84.6821C100.08 83.4773 99.7501 82.1884 99.6458 80.8717C99.6458 79.4043 100.771 75.744 102.845 77.2281C103.446 77.7432 103.895 78.4118 104.145 79.1625C104.687 80.4632 105.228 81.7722 105.811 83.0646C104.244 78.7988 103.878 74.1839 104.753 69.724C105.02 68.365 106.328 64.8297 108.411 66.1638C109.122 66.7405 109.594 67.5604 109.736 68.465C109.736 68.6068 109.811 68.7402 109.853 68.8736C110.469 71.3166 111.077 73.7679 111.694 76.2109Z" fill="#32373B"/>
<path d="M219.286 52.1978H131.733C128.893 52.1978 126.592 54.501 126.592 57.3422V216.945C126.592 219.786 128.893 222.089 131.733 222.089H219.286C222.125 222.089 224.427 219.786 224.427 216.945V57.3422C224.427 54.501 222.125 52.1978 219.286 52.1978Z" fill="#FFFFFE"/>
<path d="M219.286 52.198C220.649 52.198 221.957 52.74 222.921 53.7048C223.885 54.6696 224.426 55.9781 224.426 57.3425V216.945C224.424 218.309 223.882 219.616 222.918 220.58C221.955 221.545 220.648 222.087 219.286 222.09H131.732C130.369 222.09 129.061 221.548 128.097 220.583C127.133 219.618 126.592 218.31 126.592 216.945V57.3425C126.592 55.9781 127.133 54.6696 128.097 53.7048C129.061 52.74 130.369 52.198 131.732 52.198H219.286ZM219.286 51.3643H131.732C130.149 51.3665 128.631 51.997 127.511 53.1177C126.391 54.2383 125.761 55.7576 125.758 57.3425V216.945C125.761 218.53 126.391 220.049 127.511 221.17C128.631 222.291 130.149 222.921 131.732 222.923H219.286C220.869 222.921 222.388 222.291 223.508 221.17C224.627 220.049 225.257 218.53 225.26 216.945V57.3425C225.257 55.7576 224.627 54.2383 223.508 53.1177C222.388 51.997 220.869 51.3665 219.286 51.3643Z" fill="#888888"/>
<path d="M141.639 59.8186H135.807C135.696 59.8186 135.591 59.7747 135.512 59.6965C135.434 59.6184 135.39 59.5123 135.39 59.4018C135.39 59.2912 135.434 59.1852 135.512 59.107C135.591 59.0288 135.696 58.9849 135.807 58.9849H141.639C141.75 58.9849 141.856 59.0288 141.934 59.107C142.012 59.1852 142.056 59.2912 142.056 59.4018C142.056 59.5123 142.012 59.6184 141.934 59.6965C141.856 59.7747 141.75 59.8186 141.639 59.8186Z" fill="#32373B"/>
<path d="M141.639 62.1277H135.807C135.696 62.1277 135.591 62.0838 135.512 62.0056C135.434 61.9274 135.39 61.8214 135.39 61.7108C135.39 61.6003 135.434 61.4942 135.512 61.416C135.591 61.3379 135.696 61.2939 135.807 61.2939H141.639C141.75 61.2939 141.856 61.3379 141.934 61.416C142.012 61.4942 142.056 61.6003 142.056 61.7108C142.056 61.8214 142.012 61.9274 141.934 62.0056C141.856 62.0838 141.75 62.1277 141.639 62.1277Z" fill="#32373B"/>
<path d="M141.639 64.4378H135.807C135.696 64.4378 135.591 64.3939 135.512 64.3157C135.434 64.2375 135.39 64.1315 135.39 64.0209C135.39 63.9103 135.434 63.8043 135.512 63.7261C135.591 63.6479 135.696 63.604 135.807 63.604H141.639C141.75 63.604 141.856 63.6479 141.934 63.7261C142.012 63.8043 142.056 63.9103 142.056 64.0209C142.056 64.1315 142.012 64.2375 141.934 64.3157C141.856 64.3939 141.75 64.4378 141.639 64.4378Z" fill="#32373B"/>
<path d="M198.564 191.181H152.454C149.716 191.181 147.497 193.402 147.497 196.142V198.377C147.497 201.117 149.716 203.338 152.454 203.338H198.564C201.302 203.338 203.521 201.117 203.521 198.377V196.142C203.521 193.402 201.302 191.181 198.564 191.181Z" fill="url(#paint4_linear)"/>
<path d="M154.712 94.7037H139.665C138.67 94.7037 137.716 94.3084 137.013 93.6048C136.31 92.9012 135.915 91.9468 135.915 90.9517C135.915 89.9566 136.31 89.0023 137.013 88.2986C137.716 87.595 138.67 87.1997 139.665 87.1997H154.712C155.707 87.1997 156.66 87.595 157.363 88.2986C158.067 89.0023 158.462 89.9566 158.462 90.9517C158.462 91.9468 158.067 92.9012 157.363 93.6048C156.66 94.3084 155.707 94.7037 154.712 94.7037Z" fill="#888888"/>
<path d="M211.77 96.3715H166.077C165.265 96.3716 164.487 96.0494 163.912 95.4758C163.337 94.9022 163.013 94.1239 163.011 93.3116V88.9008C163.011 88.4979 163.09 88.0989 163.244 87.7266C163.398 87.3544 163.624 87.0161 163.909 86.7312C164.194 86.4463 164.532 86.2203 164.904 86.0661C165.276 85.9119 165.675 85.8325 166.077 85.8325H211.77C212.173 85.8325 212.571 85.9119 212.943 86.0661C213.315 86.2203 213.653 86.4463 213.938 86.7312C214.223 87.0161 214.449 87.3544 214.603 87.7266C214.757 88.0989 214.836 88.4979 214.836 88.9008V93.3116C214.834 94.1239 214.51 94.9022 213.935 95.4758C213.36 96.0494 212.582 96.3716 211.77 96.3715ZM166.077 86.6663C165.485 86.6663 164.917 86.9017 164.498 87.3208C164.079 87.7398 163.844 88.3082 163.844 88.9008V93.3116C163.846 93.9028 164.083 94.469 164.501 94.8862C164.92 95.3035 165.486 95.5378 166.077 95.5378H211.77C212.361 95.5378 212.928 95.3035 213.346 94.8862C213.765 94.469 214.001 93.9028 214.003 93.3116V88.9008C214.003 88.3082 213.768 87.7398 213.349 87.3208C212.93 86.9017 212.362 86.6663 211.77 86.6663H166.077Z" fill="#888888"/>
<path d="M150.021 114.406H139.665C138.67 114.406 137.716 114.011 137.013 113.307C136.31 112.604 135.915 111.649 135.915 110.654C135.915 109.659 136.31 108.705 137.013 108.001C137.716 107.298 138.67 106.902 139.665 106.902H150.021C151.016 106.902 151.969 107.298 152.673 108.001C153.376 108.705 153.771 109.659 153.771 110.654C153.771 111.649 153.376 112.604 152.673 113.307C151.969 114.011 151.016 114.406 150.021 114.406Z" fill="#888888"/>
<path d="M202.388 116.082H166.077C165.265 116.082 164.487 115.76 163.912 115.187C163.337 114.613 163.013 113.835 163.011 113.022V108.612C163.011 107.798 163.334 107.018 163.909 106.442C164.484 105.867 165.264 105.543 166.077 105.543H202.388C203.2 105.546 203.978 105.87 204.551 106.445C205.124 107.02 205.446 107.799 205.446 108.612V113.022C205.444 113.833 205.121 114.61 204.548 115.184C203.975 115.757 203.199 116.08 202.388 116.082ZM166.077 106.377C165.485 106.377 164.917 106.613 164.498 107.032C164.079 107.451 163.844 108.019 163.844 108.612V113.022C163.846 113.614 164.083 114.18 164.501 114.597C164.92 115.014 165.486 115.249 166.077 115.249H202.388C202.978 115.246 203.542 115.011 203.959 114.594C204.376 114.177 204.611 113.612 204.613 113.022V108.612C204.613 108.021 204.379 107.453 203.962 107.035C203.545 106.616 202.979 106.379 202.388 106.377H166.077Z" fill="#888888"/>
<path d="M148.847 134.117H139.681C138.687 134.117 137.733 133.722 137.03 133.018C136.327 132.314 135.932 131.36 135.932 130.365C135.932 129.37 136.327 128.415 137.03 127.712C137.733 127.008 138.687 126.613 139.681 126.613H148.847C149.841 126.613 150.795 127.008 151.498 127.712C152.201 128.415 152.596 129.37 152.596 130.365C152.596 131.36 152.201 132.314 151.498 133.018C150.795 133.722 149.841 134.117 148.847 134.117Z" fill="#888888"/>
<path d="M207.604 135.793H166.077C165.264 135.793 164.484 135.47 163.909 134.894C163.334 134.319 163.011 133.538 163.011 132.725V128.314C163.013 127.502 163.337 126.723 163.912 126.15C164.487 125.576 165.265 125.254 166.077 125.254H207.604C208.416 125.254 209.194 125.576 209.769 126.15C210.344 126.723 210.668 127.502 210.67 128.314V132.725C210.67 133.538 210.347 134.319 209.772 134.894C209.197 135.47 208.417 135.793 207.604 135.793ZM166.077 126.088C165.486 126.088 164.92 126.322 164.501 126.739C164.083 127.156 163.846 127.723 163.844 128.314V132.725C163.844 133.317 164.079 133.886 164.498 134.305C164.917 134.724 165.485 134.959 166.077 134.959H207.604C208.196 134.959 208.764 134.724 209.183 134.305C209.602 133.886 209.837 133.317 209.837 132.725V128.314C209.835 127.723 209.599 127.156 209.18 126.739C208.762 126.322 208.195 126.088 207.604 126.088H166.077Z" fill="#888888"/>
<path d="M154.712 153.827H139.665C138.67 153.827 137.716 153.432 137.013 152.728C136.31 152.025 135.915 151.07 135.915 150.075C135.915 149.08 136.31 148.126 137.013 147.422C137.716 146.719 138.67 146.323 139.665 146.323H154.712C155.707 146.323 156.66 146.719 157.363 147.422C158.067 148.126 158.462 149.08 158.462 150.075C158.462 151.07 158.067 152.025 157.363 152.728C156.66 153.432 155.707 153.827 154.712 153.827Z" fill="#888888"/>
<path d="M211.77 155.503H166.077C165.675 155.503 165.276 155.424 164.904 155.27C164.532 155.116 164.194 154.89 163.909 154.605C163.624 154.32 163.398 153.982 163.244 153.609C163.09 153.237 163.011 152.838 163.011 152.435V148.024C163.013 147.212 163.337 146.434 163.912 145.86C164.487 145.286 165.265 144.964 166.077 144.964H211.77C212.582 144.964 213.36 145.286 213.935 145.86C214.51 146.434 214.834 147.212 214.836 148.024V152.435C214.836 152.838 214.757 153.237 214.603 153.609C214.449 153.982 214.223 154.32 213.938 154.605C213.653 154.89 213.315 155.116 212.943 155.27C212.571 155.424 212.173 155.503 211.77 155.503ZM166.077 145.798C165.486 145.798 164.92 146.032 164.501 146.45C164.083 146.867 163.846 147.433 163.844 148.024V152.435C163.844 153.028 164.079 153.596 164.498 154.015C164.917 154.434 165.485 154.67 166.077 154.67H211.77C212.362 154.67 212.93 154.434 213.349 154.015C213.768 153.596 214.003 153.028 214.003 152.435V148.024C214.001 147.433 213.765 146.867 213.346 146.45C212.928 146.032 212.361 145.798 211.77 145.798H166.077Z" fill="#888888"/>
<path d="M150.021 173.522H139.665C138.67 173.522 137.716 173.126 137.013 172.423C136.31 171.719 135.915 170.765 135.915 169.77C135.915 168.775 136.31 167.82 137.013 167.117C137.716 166.413 138.67 166.018 139.665 166.018H150.021C151.016 166.018 151.969 166.413 152.673 167.117C153.376 167.82 153.771 168.775 153.771 169.77C153.771 170.765 153.376 171.719 152.673 172.423C151.969 173.126 151.016 173.522 150.021 173.522Z" fill="#888888"/>
<path d="M195.706 175.189H166.077C165.675 175.19 165.276 175.112 164.904 174.958C164.532 174.805 164.194 174.58 163.91 174.296C163.625 174.011 163.399 173.674 163.245 173.302C163.09 172.93 163.011 172.531 163.011 172.129V167.718C163.011 167.316 163.09 166.917 163.245 166.545C163.399 166.173 163.625 165.836 163.91 165.552C164.194 165.267 164.532 165.042 164.904 164.889C165.276 164.735 165.675 164.657 166.077 164.658H195.706C196.517 164.658 197.295 164.981 197.868 165.554C198.442 166.128 198.764 166.907 198.764 167.718V172.129C198.764 172.94 198.442 173.719 197.868 174.293C197.295 174.866 196.517 175.189 195.706 175.189ZM166.077 165.492C165.486 165.492 164.92 165.726 164.501 166.144C164.083 166.561 163.846 167.127 163.844 167.718V172.129C163.846 172.72 164.083 173.286 164.501 173.704C164.92 174.121 165.486 174.355 166.077 174.355H195.706C195.998 174.355 196.287 174.298 196.557 174.186C196.827 174.074 197.072 173.91 197.279 173.703C197.486 173.496 197.649 173.251 197.761 172.981C197.873 172.711 197.931 172.421 197.931 172.129V167.718C197.931 167.426 197.873 167.136 197.761 166.866C197.649 166.596 197.486 166.351 197.279 166.144C197.072 165.937 196.827 165.773 196.557 165.661C196.287 165.55 195.998 165.492 195.706 165.492H166.077Z" fill="#888888"/>
<path d="M179.609 215.127C180.579 215.127 181.367 214.339 181.367 213.368C181.367 212.396 180.579 211.608 179.609 211.608C178.638 211.608 177.85 212.396 177.85 213.368C177.85 214.339 178.638 215.127 179.609 215.127Z" fill="#FFFFFE"/>
<path d="M179.608 215.544C179.178 215.544 178.758 215.417 178.4 215.178C178.043 214.938 177.764 214.599 177.599 214.201C177.435 213.803 177.392 213.366 177.476 212.944C177.56 212.521 177.767 212.134 178.071 211.829C178.375 211.525 178.762 211.318 179.184 211.234C179.606 211.15 180.043 211.193 180.441 211.358C180.838 211.522 181.178 211.801 181.417 212.159C181.656 212.517 181.783 212.938 181.783 213.368C181.783 213.654 181.727 213.937 181.618 214.201C181.508 214.465 181.348 214.705 181.146 214.907C180.944 215.109 180.705 215.269 180.441 215.379C180.177 215.488 179.894 215.544 179.608 215.544ZM179.608 212.026C179.343 212.026 179.084 212.104 178.863 212.252C178.643 212.399 178.471 212.609 178.369 212.854C178.268 213.1 178.241 213.37 178.293 213.63C178.345 213.89 178.472 214.13 178.66 214.317C178.848 214.505 179.087 214.633 179.347 214.685C179.607 214.736 179.877 214.71 180.122 214.608C180.367 214.507 180.576 214.335 180.724 214.114C180.871 213.893 180.95 213.634 180.95 213.368C180.95 213.012 180.809 212.671 180.557 212.419C180.305 212.167 179.964 212.026 179.608 212.026Z" fill="#888888"/>
<path d="M171.41 215.544C170.98 215.544 170.559 215.417 170.201 215.178C169.844 214.938 169.565 214.599 169.401 214.201C169.236 213.803 169.193 213.366 169.277 212.944C169.361 212.521 169.568 212.134 169.872 211.829C170.176 211.525 170.564 211.318 170.985 211.234C171.407 211.15 171.844 211.193 172.242 211.358C172.639 211.522 172.979 211.801 173.218 212.159C173.457 212.517 173.584 212.938 173.584 213.368C173.584 213.654 173.528 213.937 173.419 214.201C173.309 214.465 173.149 214.705 172.947 214.907C172.745 215.109 172.506 215.269 172.242 215.379C171.978 215.488 171.695 215.544 171.41 215.544ZM171.41 212.026C171.144 212.026 170.885 212.104 170.664 212.252C170.444 212.399 170.272 212.609 170.17 212.854C170.069 213.1 170.042 213.37 170.094 213.63C170.146 213.89 170.273 214.13 170.461 214.317C170.649 214.505 170.888 214.633 171.148 214.685C171.408 214.736 171.678 214.71 171.923 214.608C172.168 214.507 172.378 214.335 172.525 214.114C172.672 213.893 172.751 213.634 172.751 213.368C172.751 213.012 172.61 212.671 172.358 212.419C172.107 212.167 171.765 212.026 171.41 212.026Z" fill="#888888"/>
<path d="M186.141 62.1277H164.869C164.759 62.1277 164.653 62.0838 164.574 62.0056C164.496 61.9274 164.452 61.8214 164.452 61.7108C164.455 61.6009 164.499 61.4961 164.577 61.4184C164.654 61.3407 164.759 61.2961 164.869 61.2939H186.141C186.251 61.2939 186.357 61.3379 186.435 61.416C186.513 61.4942 186.557 61.6003 186.557 61.7108C186.557 61.8214 186.513 61.9274 186.435 62.0056C186.357 62.0838 186.251 62.1277 186.141 62.1277Z" fill="#32373B"/>
<defs>
<linearGradient id="paint0_linear" x1="15.75" y1="136.08" x2="221.038" y2="140.905" gradientUnits="userSpaceOnUse">
<stop stop-color="#883FFF"/>
<stop offset="1" stop-color="#E21EE2"/>
</linearGradient>
<linearGradient id="paint1_linear" x1="62.7772" y1="29.9692" x2="62.7772" y2="111.48" gradientUnits="userSpaceOnUse">
<stop stop-color="#7373FF"/>
<stop offset="1" stop-color="#3B28EA"/>
</linearGradient>
<linearGradient id="paint2_linear" x1="62.7766" y1="168.894" x2="62.7766" y2="181.051" gradientUnits="userSpaceOnUse">
<stop stop-color="#7373FF"/>
<stop offset="1" stop-color="#3B28EA"/>
</linearGradient>
<linearGradient id="paint3_linear" x1="66.9468" y1="62.0112" x2="66.9468" y2="111.588" gradientUnits="userSpaceOnUse">
<stop stop-color="#7373FF"/>
<stop offset="1" stop-color="#3B28EA"/>
</linearGradient>
<linearGradient id="paint4_linear" x1="175.509" y1="191.181" x2="175.509" y2="203.338" gradientUnits="userSpaceOnUse">
<stop stop-color="#7373FF"/>
<stop offset="1" stop-color="#3B28EA"/>
</linearGradient>
</defs>
</svg>
