<svg viewBox="0 0 551 169" fill="none" xmlns="http://www.w3.org/2000/svg">
<path d="M76.3594 96.6641C76.3594 108.852 73.7578 118.367 68.5547 125.211C63.3516 132.008 56.0859 135.406 46.7578 135.406C38.5078 135.406 31.9219 132.242 27 125.914L26.0859 134H7.80469V26H28.125V64.7422C32.8125 59.2578 38.9766 56.5156 46.6172 56.5156C55.8984 56.5156 63.1641 59.9375 68.4141 66.7812C73.7109 73.5781 76.3594 83.1641 76.3594 95.5391V96.6641ZM56.0391 95.1875C56.0391 87.5 54.8203 81.8984 52.3828 78.3828C49.9453 74.8203 46.3125 73.0391 41.4844 73.0391C35.0156 73.0391 30.5625 75.6875 28.125 80.9844V111.008C30.6094 116.352 35.1094 119.023 41.625 119.023C48.1875 119.023 52.5 115.789 54.5625 109.32C55.5469 106.227 56.0391 101.516 56.0391 95.1875ZM131.695 76.9766C128.93 76.6016 126.492 76.4141 124.383 76.4141C116.695 76.4141 111.656 79.0156 109.266 84.2188V134H88.9453V57.9219H108.141L108.703 66.9922C112.781 60.0078 118.43 56.5156 125.648 56.5156C127.898 56.5156 130.008 56.8203 131.977 57.4297L131.695 76.9766ZM162.984 134H142.594V57.9219H162.984V134ZM141.398 38.2344C141.398 35.1875 142.406 32.6797 144.422 30.7109C146.484 28.7422 149.273 27.7578 152.789 27.7578C156.258 27.7578 159.023 28.7422 161.086 30.7109C163.148 32.6797 164.18 35.1875 164.18 38.2344C164.18 41.3281 163.125 43.8594 161.016 45.8281C158.953 47.7969 156.211 48.7812 152.789 48.7812C149.367 48.7812 146.602 47.7969 144.492 45.8281C142.43 43.8594 141.398 41.3281 141.398 38.2344ZM204.117 39.2188V57.9219H217.125V72.8281H204.117V110.797C204.117 113.609 204.656 115.625 205.734 116.844C206.812 118.062 208.875 118.672 211.922 118.672C214.172 118.672 216.164 118.508 217.898 118.18V133.578C213.914 134.797 209.812 135.406 205.594 135.406C191.344 135.406 184.078 128.211 183.797 113.82V72.8281H172.688V57.9219H183.797V39.2188H204.117ZM223.172 95.2578C223.172 87.7109 224.625 80.9844 227.531 75.0781C230.438 69.1719 234.609 64.6016 240.047 61.3672C245.531 58.1328 251.883 56.5156 259.102 56.5156C269.367 56.5156 277.734 59.6563 284.203 65.9375C290.719 72.2188 294.352 80.75 295.102 91.5312L295.242 96.7344C295.242 108.406 291.984 117.781 285.469 124.859C278.953 131.891 270.211 135.406 259.242 135.406C248.273 135.406 239.508 131.891 232.945 124.859C226.43 117.828 223.172 108.266 223.172 96.1719V95.2578ZM243.492 96.7344C243.492 103.953 244.852 109.484 247.57 113.328C250.289 117.125 254.18 119.023 259.242 119.023C264.164 119.023 268.008 117.148 270.773 113.398C273.539 109.602 274.922 103.555 274.922 95.2578C274.922 88.1797 273.539 82.6953 270.773 78.8047C268.008 74.9141 264.117 72.9688 259.102 72.9688C254.133 72.9688 250.289 74.9141 247.57 78.8047C244.852 82.6484 243.492 88.625 243.492 96.7344Z" fill="#1D2228"/>
<path d="M307.859 124.016C307.859 120.781 308.938 118.156 311.094 116.141C313.297 114.125 316.039 113.117 319.32 113.117C322.648 113.117 325.391 114.125 327.547 116.141C329.75 118.156 330.852 120.781 330.852 124.016C330.852 127.203 329.773 129.805 327.617 131.82C325.461 133.789 322.695 134.773 319.32 134.773C315.992 134.773 313.25 133.789 311.094 131.82C308.938 129.805 307.859 127.203 307.859 124.016ZM373.039 39.2188V57.9219H386.047V72.8281H373.039V110.797C373.039 113.609 373.578 115.625 374.656 116.844C375.734 118.062 377.797 118.672 380.844 118.672C383.094 118.672 385.086 118.508 386.82 118.18V133.578C382.836 134.797 378.734 135.406 374.516 135.406C360.266 135.406 353 128.211 352.719 113.82V72.8281H341.609V57.9219H352.719V39.2188H373.039ZM392.094 95.2578C392.094 87.7109 393.547 80.9844 396.453 75.0781C399.359 69.1719 403.531 64.6016 408.969 61.3672C414.453 58.1328 420.805 56.5156 428.023 56.5156C438.289 56.5156 446.656 59.6563 453.125 65.9375C459.641 72.2188 463.273 80.75 464.023 91.5312L464.164 96.7344C464.164 108.406 460.906 117.781 454.391 124.859C447.875 131.891 439.133 135.406 428.164 135.406C417.195 135.406 408.43 131.891 401.867 124.859C395.352 117.828 392.094 108.266 392.094 96.1719V95.2578ZM412.414 96.7344C412.414 103.953 413.773 109.484 416.492 113.328C419.211 117.125 423.102 119.023 428.164 119.023C433.086 119.023 436.93 117.148 439.695 113.398C442.461 109.602 443.844 103.555 443.844 95.2578C443.844 88.1797 442.461 82.6953 439.695 78.8047C436.93 74.9141 433.039 72.9688 428.023 72.9688C423.055 72.9688 419.211 74.9141 416.492 78.8047C413.773 82.6484 412.414 88.625 412.414 96.7344ZM545.164 96.6641C545.164 108.383 542.492 117.781 537.148 124.859C531.852 131.891 524.68 135.406 515.633 135.406C507.945 135.406 501.734 132.734 497 127.391V163.25H476.68V57.9219H495.523L496.227 65.375C501.148 59.4688 507.57 56.5156 515.492 56.5156C524.867 56.5156 532.156 59.9844 537.359 66.9219C542.562 73.8594 545.164 83.4219 545.164 95.6094V96.6641ZM524.844 95.1875C524.844 88.1094 523.578 82.6484 521.047 78.8047C518.562 74.9609 514.93 73.0391 510.148 73.0391C503.773 73.0391 499.391 75.4766 497 80.3516V111.5C499.484 116.516 503.914 119.023 510.289 119.023C519.992 119.023 524.844 111.078 524.844 95.1875Z" fill="#4e3fff"/>
</svg>
