<svg viewBox="0 0 15 9" fill="none" xmlns="http://www.w3.org/2000/svg">
<path d="M4.65308 0.250488C5.04514 0.250488 5.40145 0.283997 5.72537 0.355483C6.04762 0.428086 6.32295 0.539783 6.55472 0.696159C6.7837 0.852534 6.96409 1.05917 7.09086 1.32166C7.21652 1.58415 7.28075 1.90807 7.28075 2.28784C7.28075 2.70112 7.18581 3.04738 6.9976 3.32662C6.80883 3.60586 6.53015 3.82925 6.15875 4.00797C6.66474 4.15317 7.03893 4.41008 7.28801 4.77309C7.53821 5.14169 7.6594 5.58289 7.6594 6.09111C7.6594 6.50998 7.5868 6.86741 7.43042 7.16899C7.27405 7.47615 7.05624 7.72747 6.78258 7.92294C6.51451 8.11729 6.19617 8.25803 5.84991 8.3513C5.50924 8.44345 5.15069 8.49315 4.78321 8.49315H0.77832V0.254398H4.65308V0.250488ZM10.239 7.04277C10.4848 7.2818 10.8383 7.40187 11.2968 7.40187C11.6263 7.40187 11.9111 7.31922 12.1513 7.15223C12.3881 6.99027 12.5311 6.81156 12.5869 6.62726H14.0323C13.8072 7.34212 13.447 7.85592 12.9711 8.16309C12.4964 8.47584 11.919 8.62663 11.251 8.62663C10.7836 8.62663 10.3664 8.55403 9.98213 8.40324C9.60628 8.25245 9.28962 8.04022 9.02154 7.76656C8.76241 7.49291 8.56191 7.1634 8.42006 6.77805C8.27876 6.39269 8.21174 5.96825 8.21174 5.51029C8.21174 5.06183 8.28714 4.65022 8.43681 4.26487C8.5876 3.87393 8.79647 3.55001 9.06231 3.26518C9.33876 2.98036 9.65598 2.76534 10.0318 2.59835C10.4077 2.43137 10.8137 2.35653 11.2717 2.35653C11.7799 2.35653 12.2155 2.44812 12.6009 2.64862C12.9751 2.8385 13.2822 3.10657 13.528 3.4305C13.7737 3.75777 13.9468 4.13419 14.0529 4.55863C14.159 4.9775 14.1925 5.4187 14.1702 5.88783H9.87547C9.87547 6.35695 10.0318 6.79927 10.272 7.04109L10.2273 7.05785L10.239 7.04277ZM4.52016 7.07069C4.6972 7.07069 4.86642 7.05394 5.02615 7.01875C5.18811 6.98525 5.3322 6.9266 5.45227 6.85121C5.56955 6.77581 5.67008 6.66803 5.74268 6.52561C5.81529 6.39158 5.8488 6.20728 5.8488 5.98947C5.8488 5.57061 5.72593 5.26902 5.49137 5.08472C5.25122 4.90601 4.93847 4.81665 4.54753 4.81665H2.58781V7.07851H4.52016V7.06176V7.07069ZM12.1195 3.91526C11.9229 3.70024 11.5945 3.58464 11.194 3.58464C10.9327 3.58464 10.7165 3.62597 10.5429 3.71756C10.3742 3.80133 10.2357 3.91303 10.1296 4.04706C10.0235 4.1811 9.95254 4.31513 9.91065 4.46592C9.86876 4.61113 9.84363 4.74517 9.83525 4.86245H12.4948C12.4557 4.44358 12.3105 4.13642 12.115 3.91861V3.9242L12.1195 3.91526ZM4.41964 3.57179C4.74021 3.57179 5.00604 3.49696 5.21548 3.3417C5.42435 3.19091 5.52488 2.93959 5.52488 2.59445C5.52488 2.40233 5.48578 2.24539 5.42435 2.12197C5.35175 1.9991 5.2568 1.90416 5.14511 1.83602C5.02782 1.76677 4.89379 1.71874 4.743 1.69249C4.59221 1.66289 4.43025 1.65117 4.27387 1.65117H2.58222V3.57235L4.41964 3.57179ZM9.50072 0.802829H12.8338V1.61486H9.50072V0.796127V0.801712V0.802829Z" fill="#7373FF"/>
</svg>
