<svg  viewBox="0 0 14 14" fill="none" xmlns="http://www.w3.org/2000/svg">
<path d="M6.57877 0.597656C4.79153 0.597656 4.5684 0.605885 3.86667 0.637156C3.16603 0.670073 2.68907 0.780344 2.26967 0.943282C1.83712 1.11116 1.46981 1.33664 1.10414 1.70256C0.738466 2.06848 0.512595 2.43551 0.345385 2.86891C0.182561 3.2886 0.0718182 3.76589 0.0394726 4.46702C0.00657876 5.16924 0 5.39252 0 7.181C0 8.96947 0.00822346 9.19276 0.0394726 9.89498C0.0723664 10.5956 0.182561 11.0734 0.345385 11.4931C0.513144 11.9254 0.738466 12.2935 1.10414 12.6594C1.46981 13.0248 1.83657 13.2514 2.26967 13.4187C2.68962 13.5811 3.16658 13.6925 3.86667 13.7248C4.5684 13.7578 4.79153 13.7643 6.57877 13.7643C8.366 13.7643 8.58913 13.7561 9.29086 13.7248C9.99095 13.6919 10.4685 13.5811 10.8879 13.4187C11.3199 13.2508 11.6877 13.0248 12.0534 12.6594C12.4185 12.2935 12.6449 11.927 12.8121 11.4931C12.9744 11.0734 13.0857 10.5956 13.1181 9.89498C13.151 9.19276 13.1575 8.96947 13.1575 7.181C13.1575 5.39252 13.1493 5.16924 13.1181 4.46702C13.0852 3.76644 12.9744 3.28805 12.8121 2.86891C12.6444 2.43605 12.4185 2.06848 12.0534 1.70256C11.6877 1.33664 11.3215 1.11061 10.8879 0.943282C10.4685 0.780344 9.99095 0.669524 9.29086 0.637156C8.58913 0.60424 8.366 0.597656 6.57877 0.597656ZM6.57877 1.78266C8.33475 1.78266 8.54417 1.79144 9.23768 1.82161C9.87911 1.85178 10.2272 1.95821 10.4586 2.04928C10.7667 2.16833 10.9849 2.31097 11.2162 2.54084C11.446 2.77126 11.5885 2.99015 11.7075 3.29847C11.7974 3.52999 11.9048 3.87836 11.9339 4.52023C11.9651 5.21477 11.9723 5.42325 11.9723 7.181C11.9723 8.93875 11.964 9.14777 11.9317 9.84177C11.8982 10.4836 11.7913 10.832 11.7009 11.0635C11.5781 11.3718 11.4383 11.5902 11.208 11.8217C10.9783 12.0516 10.7563 12.1942 10.4515 12.3133C10.2212 12.4032 9.8676 12.5108 9.22617 12.5398C8.52773 12.5711 8.32214 12.5782 6.56232 12.5782C4.80195 12.5782 4.59636 12.57 3.89847 12.5376C3.25649 12.5042 2.90288 12.3972 2.67262 12.3067C2.36068 12.1838 2.14632 12.0439 1.91661 11.8135C1.68581 11.5836 1.53833 11.3614 1.42321 11.0564C1.33275 10.826 1.22639 10.4721 1.19295 9.83025C1.16828 9.139 1.15951 8.92558 1.15951 7.17277C1.15951 5.41941 1.16828 5.20545 1.19295 4.50597C1.22639 3.86409 1.33275 3.51079 1.42321 3.28037C1.53833 2.96766 1.68581 2.7537 1.91661 2.52274C2.14632 2.29287 2.36068 2.14474 2.67262 2.03008C2.90288 1.93901 3.24881 1.83203 3.89024 1.79912C4.58924 1.77443 4.79482 1.7662 6.5541 1.7662L6.57877 1.78266ZM6.57877 3.80045C4.71204 3.80045 3.20057 5.31462 3.20057 7.181C3.20057 9.04902 4.71369 10.5615 6.57877 10.5615C8.44549 10.5615 9.95696 9.04738 9.95696 7.181C9.95696 5.31298 8.44385 3.80045 6.57877 3.80045ZM6.57877 9.37545C5.36718 9.37545 4.38584 8.39343 4.38584 7.181C4.38584 5.96857 5.36718 4.98655 6.57877 4.98655C7.79036 4.98655 8.77169 5.96857 8.77169 7.181C8.77169 8.39343 7.79036 9.37545 6.57877 9.37545ZM10.8802 3.66714C10.8802 4.10329 10.526 4.45714 10.0907 4.45714C9.65489 4.45714 9.30128 4.10274 9.30128 3.66714C9.30128 3.23154 9.65543 2.87769 10.0907 2.87769C10.5255 2.87714 10.8802 3.23154 10.8802 3.66714Z" fill="#FFFFFE"/>
</svg>
