<svg viewBox="0 0 11 11" fill="none" xmlns="http://www.w3.org/2000/svg">
<path fill-rule="evenodd" clip-rule="evenodd" d="M6.13117 1.56755C6.73554 1.15698 7.49973 1.14894 8.06742 1.52179C8.19636 1.60644 8.33397 1.74081 8.70204 2.10886C9.0701 2.47691 9.20449 2.61458 9.28911 2.7435C9.662 3.31122 9.65396 4.07538 9.24336 4.67975C9.14963 4.81769 9.0046 4.96555 8.62304 5.34711L8.07019 5.89998C7.89576 6.07446 7.89576 6.35735 8.07019 6.53183C8.24471 6.70631 8.52761 6.70631 8.70204 6.53183L9.25489 5.97895L9.29331 5.9406C9.62358 5.6104 9.83491 5.3991 9.98253 5.18188C10.5859 4.29369 10.6171 3.13766 10.0361 2.25299C9.89433 2.03723 9.68783 1.8308 9.37383 1.51689L9.33388 1.47701L9.29403 1.4371C8.98012 1.12308 8.7737 0.916568 8.5579 0.774874C7.67326 0.193881 6.51723 0.225031 5.62904 0.828399C5.41182 0.975964 5.20051 1.18734 4.8703 1.51764L4.83197 1.55599L4.27909 2.10886C4.10461 2.28334 4.10461 2.56623 4.27909 2.74071C4.45357 2.91519 4.73646 2.91519 4.91094 2.74071L5.46381 2.18784C5.84537 1.80628 5.99323 1.66125 6.13117 1.56755ZM2.38354 5.26812C2.55802 5.09364 2.55802 4.81075 2.38354 4.63627C2.20905 4.46179 1.92616 4.46179 1.75168 4.63627L1.19881 5.18914L1.16047 5.22748C0.830156 5.55769 0.61879 5.76899 0.471217 5.98623C-0.132152 6.87441 -0.163293 8.03041 0.4177 8.91514C0.559394 9.13085 0.765899 9.33726 1.07994 9.65118L1.11983 9.69112L1.15971 9.73097C1.47362 10.045 1.68004 10.2516 1.89581 10.3932C2.78049 10.9742 3.93651 10.9431 4.82469 10.3397C5.04192 10.1921 5.25322 9.98073 5.58343 9.65046H5.58344L5.62178 9.61213L6.17465 9.05927C6.34913 8.88476 6.34913 8.60185 6.17465 8.42743C6.00016 8.25291 5.71727 8.25291 5.5428 8.42743L4.98992 8.98028C4.60837 9.36184 4.46051 9.50686 4.32258 9.60051C3.7182 10.0111 2.95405 10.0192 2.38632 9.64635C2.25741 9.56164 2.11974 9.42725 1.75168 9.05927C1.38363 8.69121 1.24927 8.55351 1.1646 8.42457C0.791768 7.85688 0.79981 7.09272 1.21037 6.48834C1.30407 6.35041 1.44911 6.20255 1.83066 5.821L2.38354 5.26812ZM7.12284 4.31992C7.29732 4.14544 7.29732 3.86254 7.12284 3.68806C6.94836 3.51358 6.66547 3.51358 6.49098 3.68806L3.33173 6.84733C3.15725 7.02181 3.15725 7.3047 3.33173 7.47917C3.50621 7.65365 3.78909 7.65365 3.96358 7.47917L7.12284 4.31992Z" fill="#7373FF"/>
</svg>
