<svg viewBox="0 0 14 14" fill="none" xmlns="http://www.w3.org/2000/svg">
<path d="M11.5138 11.8179H9.56536V8.76265C9.56536 8.03409 9.55055 7.09651 8.55003 7.09651C7.53416 7.09651 7.37901 7.88926 7.37901 8.70888V11.8179H5.43059V5.53516H7.30226V6.39155H7.32747C7.58898 5.8978 8.22493 5.37662 9.17502 5.37662C11.1492 5.37662 11.5143 6.67683 11.5143 8.36929V11.8179H11.5138ZM3.22999 4.67549C2.60281 4.67549 2.09899 4.16747 2.09899 3.54261C2.09899 2.91828 2.60336 2.41082 3.22999 2.41082C3.85497 2.41082 4.36154 2.91828 4.36154 3.54261C4.36154 4.16747 3.85443 4.67549 3.22999 4.67549ZM4.20694 11.8179H2.25304V5.53516H4.20694V11.8179ZM12.4885 0.597656H1.275C0.738277 0.597656 0.304077 1.02228 0.304077 1.54621V12.8158C0.304077 13.3403 0.738277 13.7643 1.275 13.7643H12.4869C13.0231 13.7643 13.4616 13.3403 13.4616 12.8158V1.54621C13.4616 1.02228 13.0231 0.597656 12.4869 0.597656H12.4885Z" fill="#212529"/>
</svg>
