<svg viewBox="0 0 14 14" fill="none" xmlns="http://www.w3.org/2000/svg">
<path d="M0.152039 0.597656V13.7643H13.3096V0.597656H0.152039ZM11.0827 3.71706L10.3771 4.39405C10.3472 4.41685 10.3241 4.4474 10.3102 4.48241C10.2964 4.51742 10.2924 4.55554 10.2987 4.59265V9.56691C10.2925 9.60394 10.2966 9.64195 10.3104 9.67685C10.3242 9.71175 10.3473 9.74221 10.3771 9.76496L11.0662 10.4419V10.5906H7.60032V10.4425L8.31411 9.7485C8.38429 9.67828 8.38429 9.65798 8.38429 9.551V5.52968L6.39969 10.5742H6.13105L3.81971 5.52968V8.91077C3.8102 8.98089 3.81676 9.05224 3.83889 9.11944C3.86102 9.18664 3.89814 9.24792 3.94745 9.29864L4.87615 10.4255V10.5742H2.24354V10.426L3.1728 9.29864C3.2217 9.24788 3.25799 9.18634 3.27875 9.11896C3.29951 9.05159 3.30416 8.98027 3.29231 8.91077V5.00136C3.29778 4.94781 3.29056 4.89372 3.27122 4.84348C3.25188 4.79325 3.22098 4.74829 3.18102 4.71225L2.35538 3.71706V3.56894H4.91782L6.89858 7.91559L8.63976 3.56839H11.0827V3.71706Z" fill="#212529"/>
</svg>
