<svg viewBox="0 0 14 14" fill="none" xmlns="http://www.w3.org/2000/svg">
<path d="M0.1521 0.597656V13.7643H13.3097V0.597656H0.1521ZM11.0827 3.71706L10.3772 4.39405C10.3472 4.41685 10.3241 4.4474 10.3103 4.48241C10.2965 4.51742 10.2925 4.55554 10.2988 4.59265V9.56691C10.2926 9.60394 10.2966 9.64195 10.3104 9.67685C10.3243 9.71175 10.3473 9.74221 10.3772 9.76496L11.0663 10.4419V10.5906H7.60038V10.4425L8.31417 9.7485C8.38435 9.67828 8.38435 9.65798 8.38435 9.551V5.52968L6.39975 10.5742H6.13112L3.81977 5.52968V8.91077C3.81026 8.98089 3.81682 9.05224 3.83895 9.11944C3.86108 9.18664 3.89821 9.24792 3.94751 9.29864L4.87621 10.4255V10.5742H2.2436V10.426L3.17286 9.29864C3.22176 9.24788 3.25805 9.18634 3.27881 9.11896C3.29957 9.05159 3.30422 8.98027 3.29237 8.91077V5.00136C3.29784 4.94781 3.29062 4.89372 3.27128 4.84348C3.25194 4.79325 3.22104 4.74829 3.18108 4.71225L2.35544 3.71706V3.56894H4.91788L6.89864 7.91559L8.63982 3.56839H11.0827V3.71706Z" fill="#FFFFFE"/>
</svg>
