<svg width="14" height="23" viewBox="0 0 14 23" fill="none" xmlns="http://www.w3.org/2000/svg">
<path d="M6.35826 3.57671V0.564372H9.10388V3.60809C10.5055 3.71268 11.8966 3.95325 13.2772 4.32979V6.84007C11.3422 6.2125 9.39151 5.89872 7.42513 5.89872C4.68474 5.89872 3.31454 6.68318 3.31454 8.2521C3.31454 9.71643 4.17745 10.4486 5.90327 10.4486H8.25666C12.0221 10.4486 13.9048 12.0698 13.9048 15.3123C13.9048 17.9376 12.3045 19.4647 9.10388 19.8935V23H6.35826V20.0034C4.62198 19.9511 2.90139 19.6948 1.1965 19.2346V16.7243C3.1315 17.3519 5.08743 17.6657 7.06427 17.6657C9.68961 17.6657 11.0023 16.8812 11.0023 15.3123C11.0023 13.8479 10.0871 13.1158 8.25666 13.1158H5.90327C2.34704 13.1158 0.568925 11.4945 0.568925 8.2521C0.568925 5.36528 2.4987 3.80682 6.35826 3.57671Z" fill="#212529"/>
</svg>
