<svg width="13" height="14" viewBox="0 0 13 14" fill="none" xmlns="http://www.w3.org/2000/svg">
<path fill-rule="evenodd" clip-rule="evenodd" d="M6.25542 0.069537C6.09852 -0.023179 5.9036 -0.023179 5.74669 0.069537L0.246691 3.31954C0.0944613 3.40949 0.00106127 3.57317 0.00106127 3.75C0.00106127 3.92683 0.0944613 4.09051 0.246691 4.18046L5.74669 7.43046C5.9036 7.52318 6.09852 7.52318 6.25542 7.43046L11.7554 4.18046C11.9077 4.09051 12.0011 3.92683 12.0011 3.75C12.0011 3.57317 11.9077 3.40949 11.7554 3.31954L6.25542 0.069537ZM6.00106 6.41923L1.4839 3.75L6.00106 1.08077L10.5182 3.75L6.00106 6.41923ZM0.0706013 6.74564C0.211081 6.5079 0.517691 6.42906 0.755421 6.56954L6.00106 9.6692L11.2467 6.56954C11.4844 6.42906 11.791 6.5079 11.9315 6.74564C12.072 6.98337 11.9932 7.28998 11.7554 7.43046L6.25542 10.6805C6.09852 10.7732 5.9036 10.7732 5.74669 10.6805L0.246691 7.43046C0.00896131 7.28998 -0.0698887 6.98337 0.0706013 6.74564ZM0.0705913 9.7456C0.211081 9.5079 0.517681 9.4291 0.755421 9.5695L6.00106 12.6692L11.2467 9.5695C11.4844 9.4291 11.791 9.5079 11.9315 9.7456C12.072 9.9834 11.9932 10.29 11.7554 10.4305L6.25542 13.6805C6.09852 13.7732 5.9036 13.7732 5.74669 13.6805L0.246691 10.4305C0.00895131 10.29 -0.0698887 9.9834 0.0705913 9.7456Z" fill="#FFFFFE"/>
</svg>
