<svg width="12" height="14" viewBox="0 0 12 14" fill="none" xmlns="http://www.w3.org/2000/svg">
<path fill-rule="evenodd" clip-rule="evenodd" d="M6.25445 0.069537C6.09755 -0.023179 5.90263 -0.023179 5.74572 0.069537L0.245715 3.31954C0.0934847 3.40949 8.47115e-05 3.57317 8.47115e-05 3.75C8.47115e-05 3.92683 0.0934847 4.09051 0.245715 4.18046L5.74572 7.43046C5.90263 7.52318 6.09755 7.52318 6.25445 7.43046L11.7544 4.18046C11.9067 4.09051 12.0001 3.92683 12.0001 3.75C12.0001 3.57317 11.9067 3.40949 11.7544 3.31954L6.25445 0.069537ZM6.00008 6.41923L1.48292 3.75L6.00008 1.08077L10.5172 3.75L6.00008 6.41923ZM0.0696247 6.74564C0.210105 6.5079 0.516715 6.42906 0.754445 6.56954L6.00008 9.6692L11.2457 6.56954C11.4834 6.42906 11.79 6.5079 11.9305 6.74564C12.071 6.98337 11.9922 7.28998 11.7544 7.43046L6.25445 10.6805C6.09755 10.7732 5.90263 10.7732 5.74572 10.6805L0.245715 7.43046C0.00798474 7.28998 -0.0708653 6.98337 0.0696247 6.74564ZM0.0696147 9.7456C0.210105 9.5079 0.516705 9.4291 0.754445 9.5695L6.00008 12.6692L11.2457 9.5695C11.4834 9.4291 11.79 9.5079 11.9305 9.7456C12.071 9.9834 11.9922 10.29 11.7544 10.4305L6.25445 13.6805C6.09755 13.7732 5.90263 13.7732 5.74572 13.6805L0.245715 10.4305C0.00797474 10.29 -0.0708653 9.9834 0.0696147 9.7456Z" fill="#292B30"/>
</svg>
