<svg width="14" height="14" viewBox="0 0 14 14" fill="none" xmlns="http://www.w3.org/2000/svg">
<path fill-rule="evenodd" clip-rule="evenodd" d="M6.60097 0.899996C3.45295 0.899996 0.900974 3.45198 0.900974 6.6C0.900974 9.74798 3.45295 12.3 6.60097 12.3C9.74901 12.3 12.301 9.74798 12.301 6.6C12.301 3.45198 9.74901 0.899996 6.60097 0.899996ZM0.000976562 6.6C0.000976562 2.95492 2.95589 0 6.60097 0C10.246 0 13.201 2.95492 13.201 6.6C13.201 10.2451 10.246 13.2 6.60097 13.2C2.95589 13.2 0.000976562 10.2451 0.000976562 6.6Z" fill="#FFFFFE"/>
<path fill-rule="evenodd" clip-rule="evenodd" d="M12.601 7.0002H0.601074V6.2002H12.601V7.0002Z" fill="#FFFFFE"/>
<path fill-rule="evenodd" clip-rule="evenodd" d="M6.20105 12.6003V0.60034H7.00105V12.6003H6.20105ZM9.47614 6.60032C9.47614 4.42758 8.69478 2.27812 7.16297 0.8569L7.63907 0.34375C9.34074 1.92252 10.1761 4.27307 10.1761 6.60032C10.1761 8.92758 9.34074 11.2781 7.63907 12.8569L7.16297 12.3437C8.69478 10.9225 9.47614 8.77307 9.47614 6.60032ZM3.10083 6.60034C3.10083 4.27645 3.909 1.92712 5.55882 0.34753L6.04291 0.85315C4.55934 2.27357 3.80083 4.42423 3.80083 6.60034C3.80084 8.77645 4.55936 10.9271 6.04293 12.3475L5.55883 12.8531C3.90902 11.2735 3.10084 8.92424 3.10083 6.60034Z" fill="#FFFFFE"/>
<path fill-rule="evenodd" clip-rule="evenodd" d="M6.6011 3.05811C8.77042 3.05811 10.9764 3.45925 12.4717 4.29458C12.6405 4.38885 12.7009 4.60207 12.6066 4.77083C12.5124 4.93958 12.2991 4.99997 12.1304 4.9057C10.7805 4.15165 8.70913 3.75811 6.6011 3.75811C4.49306 3.75811 2.42166 4.15165 1.07178 4.9057C0.903015 4.99997 0.689795 4.93958 0.595525 4.77083C0.501265 4.60207 0.561645 4.38885 0.730405 4.29458C2.2258 3.45925 4.43177 3.05811 6.6011 3.05811ZM6.6011 9.9501C8.77042 9.9501 10.9764 9.5489 12.4717 8.7136C12.6405 8.61934 12.7009 8.40611 12.6066 8.23736C12.5124 8.0686 12.2991 8.00822 12.1304 8.10248C10.7805 8.85653 8.70913 9.2501 6.6011 9.2501C4.49306 9.2501 2.42166 8.85653 1.07178 8.10249C0.903015 8.00822 0.689795 8.0686 0.595525 8.23736C0.501265 8.40611 0.561645 8.61934 0.730405 8.7136C2.2258 9.5489 4.43177 9.9501 6.6011 9.9501Z" fill="#FFFFFE"/>
</svg>
