<svg width="14" height="14" viewBox="0 0 14 14" fill="none" xmlns="http://www.w3.org/2000/svg">
<path fill-rule="evenodd" clip-rule="evenodd" d="M6.6 0.899996C3.45198 0.899996 0.899997 3.45198 0.899997 6.6C0.899997 9.74798 3.45198 12.3 6.6 12.3C9.74804 12.3 12.3 9.74798 12.3 6.6C12.3 3.45198 9.74804 0.899996 6.6 0.899996ZM0 6.6C0 2.95492 2.95492 0 6.6 0C10.245 0 13.2 2.95492 13.2 6.6C13.2 10.2451 10.245 13.2 6.6 13.2C2.95492 13.2 0 10.2451 0 6.6Z" fill="#292B30"/>
<path fill-rule="evenodd" clip-rule="evenodd" d="M12.6001 7.0002H0.600098V6.2002H12.6001V7.0002Z" fill="#292B30"/>
<path fill-rule="evenodd" clip-rule="evenodd" d="M6.19983 12.6003V0.60034H6.99983V12.6003H6.19983ZM9.47492 6.60032C9.47492 4.42758 8.69356 2.27812 7.16175 0.8569L7.63785 0.34375C9.33952 1.92252 10.1749 4.27307 10.1749 6.60032C10.1749 8.92758 9.33952 11.2781 7.63785 12.8569L7.16175 12.3437C8.69356 10.9225 9.47492 8.77307 9.47492 6.60032ZM3.09961 6.60034C3.09961 4.27645 3.90778 1.92712 5.5576 0.34753L6.04169 0.85315C4.55812 2.27357 3.79961 4.42423 3.79961 6.60034C3.79962 8.77645 4.55814 10.9271 6.04171 12.3475L5.55761 12.8531C3.9078 11.2735 3.09962 8.92424 3.09961 6.60034Z" fill="#292B30"/>
<path fill-rule="evenodd" clip-rule="evenodd" d="M6.59987 3.05811C8.76919 3.05811 10.9752 3.45925 12.4705 4.29458C12.6393 4.38885 12.6997 4.60207 12.6054 4.77083C12.5112 4.93958 12.2979 4.99997 12.1292 4.9057C10.7793 4.15165 8.7079 3.75811 6.59987 3.75811C4.49183 3.75811 2.42043 4.15165 1.07055 4.9057C0.901795 4.99997 0.688575 4.93958 0.594305 4.77083C0.500045 4.60207 0.560425 4.38885 0.729185 4.29458C2.22457 3.45925 4.43054 3.05811 6.59987 3.05811ZM6.59987 9.9501C8.76919 9.9501 10.9752 9.5489 12.4705 8.7136C12.6393 8.61934 12.6997 8.40611 12.6054 8.23736C12.5112 8.0686 12.2979 8.00822 12.1292 8.10248C10.7793 8.85653 8.7079 9.2501 6.59987 9.2501C4.49183 9.2501 2.42043 8.85653 1.07055 8.10249C0.901795 8.00822 0.688575 8.0686 0.594305 8.23736C0.500045 8.40611 0.560425 8.61934 0.729185 8.7136C2.22457 9.5489 4.43054 9.9501 6.59987 9.9501Z" fill="#292B30"/>
</svg>
