<svg viewBox="0 0 14 10" fill="none" xmlns="http://www.w3.org/2000/svg">
<path d="M13.3392 2.00051C13.263 1.72703 13.1175 1.47786 12.9169 1.27709C12.7162 1.07632 12.4672 0.930753 12.1939 0.854453C11.1687 0.579598 7.04056 0.579598 7.04056 0.579598C7.04056 0.579598 2.92388 0.574111 1.88772 0.854453C1.61446 0.930884 1.36554 1.07657 1.16501 1.27744C0.964476 1.4783 0.819126 1.72754 0.74301 2.00106C0.548502 3.05155 0.452509 4.11794 0.456284 5.18631C0.453226 6.25083 0.549215 7.31333 0.74301 8.36004C0.819208 8.63345 0.964595 8.88258 1.16512 9.08334C1.36565 9.2841 1.61453 9.42971 1.88772 9.50609C2.91237 9.7815 7.04111 9.78149 7.04111 9.78149C7.04111 9.78149 11.1572 9.7815 12.1939 9.50609C12.4673 9.42974 12.7163 9.28409 12.917 9.08322C13.1176 8.88235 13.263 8.63307 13.3392 8.35949C13.5287 7.31256 13.6205 6.25025 13.6133 5.18631C13.6213 4.11796 13.5295 3.05176 13.3392 2.00051ZM5.7237 7.15748V3.20965L9.15893 5.18685L5.7237 7.15748Z" fill="#212529"/>
</svg>
