<svg viewBox="0 0 133 64" fill="none" xmlns="http://www.w3.org/2000/svg">
<g opacity="0.4">
<path d="M126.309 59.9593C126.309 58.4993 127.481 57.3093 128.919 57.3093C130.356 57.3093 131.528 58.4993 131.528 59.9593C131.528 61.4193 130.356 62.6093 128.919 62.6093C127.481 62.6093 126.309 61.4293 126.309 59.9593Z" stroke="#7373FF" stroke-miterlimit="10"/>
<path d="M112.431 59.9593C112.431 58.4993 113.603 57.3093 115.041 57.3093C116.479 57.3093 117.651 58.4993 117.651 59.9593C117.651 61.4193 116.479 62.6093 115.041 62.6093C113.603 62.6093 112.431 61.4293 112.431 59.9593Z" stroke="#7373FF" stroke-miterlimit="10"/>
<path d="M98.5542 59.9593C98.5542 58.4993 99.7262 57.3093 101.164 57.3093C102.602 57.3093 103.774 58.4993 103.774 59.9593C103.774 61.4193 102.602 62.6093 101.164 62.6093C99.7262 62.6093 98.5542 61.4293 98.5542 59.9593Z" stroke="#7373FF" stroke-miterlimit="10"/>
<path d="M84.6772 59.9593C84.6772 58.4993 85.8493 57.3093 87.2872 57.3093C88.7252 57.3093 89.8972 58.4993 89.8972 59.9593C89.8972 61.4193 88.7252 62.6093 87.2872 62.6093C85.8493 62.6093 84.6772 61.4293 84.6772 59.9593Z" stroke="#7373FF" stroke-miterlimit="10"/>
<path d="M73.41 62.6093C74.8514 62.6093 76.02 61.4229 76.02 59.9593C76.02 58.4958 74.8514 57.3093 73.41 57.3093C71.9686 57.3093 70.8 58.4958 70.8 59.9593C70.8 61.4229 71.9686 62.6093 73.41 62.6093Z" stroke="#7373FF" stroke-miterlimit="10"/>
<path d="M56.9229 59.9593C56.9229 58.4993 58.0949 57.3093 59.5328 57.3093C60.9707 57.3093 62.1428 58.4993 62.1428 59.9593C62.1428 61.4193 60.9707 62.6093 59.5328 62.6093C58.0949 62.6093 56.9229 61.4293 56.9229 59.9593Z" stroke="#7373FF" stroke-miterlimit="10"/>
<path d="M43.0459 59.9593C43.0459 58.4993 44.2179 57.3093 45.6558 57.3093C47.0938 57.3093 48.2658 58.4993 48.2658 59.9593C48.2658 61.4193 47.0938 62.6093 45.6558 62.6093C44.2179 62.6093 43.0459 61.4293 43.0459 59.9593Z" stroke="#7373FF" stroke-miterlimit="10"/>
<path d="M29.1687 59.9593C29.1687 58.4993 30.3407 57.3093 31.7787 57.3093C33.2166 57.3093 34.3886 58.4993 34.3886 59.9593C34.3886 61.4193 33.2166 62.6093 31.7787 62.6093C30.3407 62.6093 29.1687 61.4293 29.1687 59.9593Z" stroke="#7373FF" stroke-miterlimit="10"/>
<path d="M17.9015 62.6093C19.3429 62.6093 20.5114 61.4229 20.5114 59.9593C20.5114 58.4958 19.3429 57.3093 17.9015 57.3093C16.46 57.3093 15.2915 58.4958 15.2915 59.9593C15.2915 61.4229 16.46 62.6093 17.9015 62.6093Z" stroke="#7373FF" stroke-miterlimit="10"/>
<path d="M4.02499 62.6093C5.46643 62.6093 6.63494 61.4229 6.63494 59.9593C6.63494 58.4958 5.46643 57.3093 4.02499 57.3093C2.58355 57.3093 1.41504 58.4958 1.41504 59.9593C1.41504 61.4229 2.58355 62.6093 4.02499 62.6093Z" stroke="#7373FF" stroke-miterlimit="10"/>
<path d="M126.309 45.9093C126.309 44.4493 127.481 43.2593 128.919 43.2593C130.356 43.2593 131.528 44.4493 131.528 45.9093C131.528 47.3693 130.356 48.5593 128.919 48.5593C127.481 48.5593 126.309 47.3793 126.309 45.9093Z" stroke="#7373FF" stroke-miterlimit="10"/>
<path d="M112.431 45.9093C112.431 44.4493 113.603 43.2593 115.041 43.2593C116.479 43.2593 117.651 44.4493 117.651 45.9093C117.651 47.3693 116.479 48.5593 115.041 48.5593C113.603 48.5593 112.431 47.3793 112.431 45.9093Z" stroke="#7373FF" stroke-miterlimit="10"/>
<path d="M98.5542 45.9093C98.5542 44.4493 99.7262 43.2593 101.164 43.2593C102.602 43.2593 103.774 44.4493 103.774 45.9093C103.774 47.3693 102.602 48.5593 101.164 48.5593C99.7262 48.5593 98.5542 47.3793 98.5542 45.9093Z" stroke="#7373FF" stroke-miterlimit="10"/>
<path d="M84.6772 45.9093C84.6772 44.4493 85.8493 43.2593 87.2872 43.2593C88.7252 43.2593 89.8972 44.4493 89.8972 45.9093C89.8972 47.3693 88.7252 48.5593 87.2872 48.5593C85.8493 48.5593 84.6772 47.3793 84.6772 45.9093Z" stroke="#7373FF" stroke-miterlimit="10"/>
<path d="M73.41 48.5593C74.8514 48.5593 76.02 47.3728 76.02 45.9093C76.02 44.4457 74.8514 43.2593 73.41 43.2593C71.9686 43.2593 70.8 44.4457 70.8 45.9093C70.8 47.3728 71.9686 48.5593 73.41 48.5593Z" stroke="#7373FF" stroke-miterlimit="10"/>
<path d="M56.9229 45.9093C56.9229 44.4493 58.0949 43.2593 59.5328 43.2593C60.9707 43.2593 62.1428 44.4493 62.1428 45.9093C62.1428 47.3693 60.9707 48.5593 59.5328 48.5593C58.0949 48.5593 56.9229 47.3793 56.9229 45.9093Z" stroke="#7373FF" stroke-miterlimit="10"/>
<path d="M43.0459 45.9093C43.0459 44.4493 44.2179 43.2593 45.6558 43.2593C47.0938 43.2593 48.2658 44.4493 48.2658 45.9093C48.2658 47.3693 47.0938 48.5593 45.6558 48.5593C44.2179 48.5593 43.0459 47.3793 43.0459 45.9093Z" stroke="#7373FF" stroke-miterlimit="10"/>
<path d="M29.1687 45.9093C29.1687 44.4493 30.3407 43.2593 31.7787 43.2593C33.2166 43.2593 34.3886 44.4493 34.3886 45.9093C34.3886 47.3693 33.2166 48.5593 31.7787 48.5593C30.3407 48.5593 29.1687 47.3793 29.1687 45.9093Z" stroke="#7373FF" stroke-miterlimit="10"/>
<path d="M17.9015 48.5593C19.3429 48.5593 20.5114 47.3728 20.5114 45.9093C20.5114 44.4457 19.3429 43.2593 17.9015 43.2593C16.46 43.2593 15.2915 44.4457 15.2915 45.9093C15.2915 47.3728 16.46 48.5593 17.9015 48.5593Z" stroke="#7373FF" stroke-miterlimit="10"/>
<path d="M4.02499 48.5593C5.46643 48.5593 6.63494 47.3728 6.63494 45.9093C6.63494 44.4457 5.46643 43.2593 4.02499 43.2593C2.58355 43.2593 1.41504 44.4457 1.41504 45.9093C1.41504 47.3728 2.58355 48.5593 4.02499 48.5593Z" stroke="#7373FF" stroke-miterlimit="10"/>
<path d="M126.309 31.8592C126.309 30.3992 127.481 29.2092 128.919 29.2092C130.356 29.2092 131.528 30.3992 131.528 31.8592C131.528 33.3192 130.356 34.5092 128.919 34.5092C127.481 34.5092 126.309 33.3292 126.309 31.8592Z" stroke="#7373FF" stroke-miterlimit="10"/>
<path d="M112.431 31.8592C112.431 30.3992 113.603 29.2092 115.041 29.2092C116.479 29.2092 117.651 30.3992 117.651 31.8592C117.651 33.3192 116.479 34.5092 115.041 34.5092C113.603 34.5092 112.431 33.3292 112.431 31.8592Z" stroke="#7373FF" stroke-miterlimit="10"/>
<path d="M98.5542 31.8592C98.5542 30.3992 99.7262 29.2092 101.164 29.2092C102.602 29.2092 103.774 30.3992 103.774 31.8592C103.774 33.3192 102.602 34.5092 101.164 34.5092C99.7262 34.5092 98.5542 33.3292 98.5542 31.8592Z" stroke="#7373FF" stroke-miterlimit="10"/>
<path d="M84.6772 31.8592C84.6772 30.3992 85.8493 29.2092 87.2872 29.2092C88.7252 29.2092 89.8972 30.3992 89.8972 31.8592C89.8972 33.3192 88.7252 34.5092 87.2872 34.5092C85.8493 34.5092 84.6772 33.3292 84.6772 31.8592Z" stroke="#7373FF" stroke-miterlimit="10"/>
<path d="M73.41 34.5092C74.8514 34.5092 76.02 33.3228 76.02 31.8592C76.02 30.3957 74.8514 29.2092 73.41 29.2092C71.9686 29.2092 70.8 30.3957 70.8 31.8592C70.8 33.3228 71.9686 34.5092 73.41 34.5092Z" stroke="#7373FF" stroke-miterlimit="10"/>
<path d="M56.9229 31.8592C56.9229 30.3992 58.0949 29.2092 59.5328 29.2092C60.9707 29.2092 62.1428 30.3992 62.1428 31.8592C62.1428 33.3192 60.9707 34.5092 59.5328 34.5092C58.0949 34.5092 56.9229 33.3292 56.9229 31.8592Z" stroke="#7373FF" stroke-miterlimit="10"/>
<path d="M43.0459 31.8592C43.0459 30.3992 44.2179 29.2092 45.6558 29.2092C47.0938 29.2092 48.2658 30.3992 48.2658 31.8592C48.2658 33.3192 47.0938 34.5092 45.6558 34.5092C44.2179 34.5092 43.0459 33.3292 43.0459 31.8592Z" stroke="#7373FF" stroke-miterlimit="10"/>
<path d="M29.1687 31.8592C29.1687 30.3992 30.3407 29.2092 31.7787 29.2092C33.2166 29.2092 34.3886 30.3992 34.3886 31.8592C34.3886 33.3192 33.2166 34.5092 31.7787 34.5092C30.3407 34.5092 29.1687 33.3292 29.1687 31.8592Z" stroke="#7373FF" stroke-miterlimit="10"/>
<path d="M17.9015 34.5092C19.3429 34.5092 20.5114 33.3228 20.5114 31.8592C20.5114 30.3957 19.3429 29.2092 17.9015 29.2092C16.46 29.2092 15.2915 30.3957 15.2915 31.8592C15.2915 33.3228 16.46 34.5092 17.9015 34.5092Z" stroke="#7373FF" stroke-miterlimit="10"/>
<path d="M4.02499 34.5092C5.46643 34.5092 6.63494 33.3228 6.63494 31.8592C6.63494 30.3957 5.46643 29.2092 4.02499 29.2092C2.58355 29.2092 1.41504 30.3957 1.41504 31.8592C1.41504 33.3228 2.58355 34.5092 4.02499 34.5092Z" stroke="#7373FF" stroke-miterlimit="10"/>
<path d="M126.309 17.8094C126.309 16.3494 127.481 15.1594 128.919 15.1594C130.356 15.1594 131.528 16.3494 131.528 17.8094C131.528 19.2694 130.356 20.4594 128.919 20.4594C127.481 20.4594 126.309 19.2794 126.309 17.8094Z" stroke="#7373FF" stroke-miterlimit="10"/>
<path d="M112.431 17.8094C112.431 16.3494 113.603 15.1594 115.041 15.1594C116.479 15.1594 117.651 16.3494 117.651 17.8094C117.651 19.2694 116.479 20.4594 115.041 20.4594C113.603 20.4594 112.431 19.2794 112.431 17.8094Z" stroke="#7373FF" stroke-miterlimit="10"/>
<path d="M98.5542 17.8094C98.5542 16.3494 99.7262 15.1594 101.164 15.1594C102.602 15.1594 103.774 16.3494 103.774 17.8094C103.774 19.2694 102.602 20.4594 101.164 20.4594C99.7262 20.4594 98.5542 19.2794 98.5542 17.8094Z" stroke="#7373FF" stroke-miterlimit="10"/>
<path d="M84.6772 17.8094C84.6772 16.3494 85.8493 15.1594 87.2872 15.1594C88.7252 15.1594 89.8972 16.3494 89.8972 17.8094C89.8972 19.2694 88.7252 20.4594 87.2872 20.4594C85.8493 20.4594 84.6772 19.2794 84.6772 17.8094Z" stroke="#7373FF" stroke-miterlimit="10"/>
<path d="M70.8 17.8094C70.8 16.3494 71.9721 15.1594 73.41 15.1594C74.8479 15.1594 76.02 16.3494 76.02 17.8094C76.02 19.2694 74.8479 20.4594 73.41 20.4594C71.9721 20.4594 70.8 19.2794 70.8 17.8094Z" stroke="#7373FF" stroke-miterlimit="10"/>
<path d="M56.9229 17.8094C56.9229 16.3494 58.0949 15.1594 59.5328 15.1594C60.9707 15.1594 62.1428 16.3494 62.1428 17.8094C62.1428 19.2694 60.9707 20.4594 59.5328 20.4594C58.0949 20.4594 56.9229 19.2794 56.9229 17.8094Z" stroke="#7373FF" stroke-miterlimit="10"/>
<path d="M43.0459 17.8094C43.0459 16.3494 44.2179 15.1594 45.6558 15.1594C47.0938 15.1594 48.2658 16.3494 48.2658 17.8094C48.2658 19.2694 47.0938 20.4594 45.6558 20.4594C44.2179 20.4594 43.0459 19.2794 43.0459 17.8094Z" stroke="#7373FF" stroke-miterlimit="10"/>
<path d="M29.1687 17.8094C29.1687 16.3494 30.3407 15.1594 31.7787 15.1594C33.2166 15.1594 34.3886 16.3494 34.3886 17.8094C34.3886 19.2694 33.2166 20.4594 31.7787 20.4594C30.3407 20.4594 29.1687 19.2794 29.1687 17.8094Z" stroke="#7373FF" stroke-miterlimit="10"/>
<path d="M15.2915 17.8094C15.2915 16.3494 16.4635 15.1594 17.9015 15.1594C19.3394 15.1594 20.5114 16.3494 20.5114 17.8094C20.5114 19.2694 19.3394 20.4594 17.9015 20.4594C16.4635 20.4594 15.2915 19.2794 15.2915 17.8094Z" stroke="#7373FF" stroke-miterlimit="10"/>
<path d="M1.41504 17.8094C1.41504 16.3494 2.58705 15.1594 4.02499 15.1594C5.46293 15.1594 6.63494 16.3494 6.63494 17.8094C6.63494 19.2694 5.46293 20.4594 4.02499 20.4594C2.58705 20.4594 1.41504 19.2794 1.41504 17.8094Z" stroke="#7373FF" stroke-miterlimit="10"/>
<path d="M126.309 3.75938C126.309 2.29938 127.481 1.10938 128.919 1.10938C130.356 1.10938 131.528 2.29938 131.528 3.75938C131.528 5.21938 130.356 6.40938 128.919 6.40938C127.481 6.40938 126.309 5.22938 126.309 3.75938Z" stroke="#7373FF" stroke-miterlimit="10"/>
<path d="M112.432 3.75938C112.432 2.29938 113.604 1.10938 115.042 1.10938C116.48 1.10938 117.652 2.29938 117.652 3.75938C117.652 5.21938 116.48 6.40938 115.042 6.40938C113.604 6.40938 112.432 5.22938 112.432 3.75938Z" stroke="#7373FF" stroke-miterlimit="10"/>
<path d="M98.5542 3.75938C98.5542 2.29938 99.7262 1.10938 101.164 1.10938C102.602 1.10938 103.774 2.29938 103.774 3.75938C103.774 5.21938 102.602 6.40938 101.164 6.40938C99.7262 6.40938 98.5542 5.22938 98.5542 3.75938Z" stroke="#7373FF" stroke-miterlimit="10"/>
<path d="M84.6772 3.75938C84.6772 2.29938 85.8493 1.10938 87.2872 1.10938C88.7252 1.10938 89.8972 2.29938 89.8972 3.75938C89.8972 5.21938 88.7252 6.40938 87.2872 6.40938C85.8493 6.40938 84.6772 5.22938 84.6772 3.75938Z" stroke="#7373FF" stroke-miterlimit="10"/>
<path d="M76.008 3.83926C76.0599 2.37658 74.9342 1.14812 73.4936 1.09543C72.053 1.04275 70.8431 2.18579 70.7912 3.64847C70.7393 5.11115 71.8651 6.33958 73.3057 6.39227C74.7462 6.44495 75.9561 5.30194 76.008 3.83926Z" stroke="#7373FF" stroke-miterlimit="10"/>
<path d="M56.9231 3.75938C56.9231 2.29938 58.0951 1.10938 59.533 1.10938C60.971 1.10938 62.143 2.29938 62.143 3.75938C62.143 5.21938 60.971 6.40938 59.533 6.40938C58.0951 6.40938 56.9231 5.22938 56.9231 3.75938Z" stroke="#7373FF" stroke-miterlimit="10"/>
<path d="M43.0459 3.75938C43.0459 2.29938 44.2179 1.10938 45.6558 1.10938C47.0938 1.10938 48.2658 2.29938 48.2658 3.75938C48.2658 5.21938 47.0938 6.40938 45.6558 6.40938C44.2179 6.40938 43.0459 5.22938 43.0459 3.75938Z" stroke="#7373FF" stroke-miterlimit="10"/>
<path d="M29.1689 3.75938C29.1689 2.29938 30.341 1.10938 31.7789 1.10938C33.2168 1.10938 34.3888 2.29938 34.3888 3.75938C34.3888 5.21938 33.2168 6.40938 31.7789 6.40938C30.341 6.40938 29.1689 5.22938 29.1689 3.75938Z" stroke="#7373FF" stroke-miterlimit="10"/>
<path d="M20.4927 3.87135C20.5407 2.40867 19.4118 1.18344 17.9712 1.1347C16.5306 1.08596 15.3239 2.23218 15.2759 3.69486C15.2279 5.15753 16.3568 6.38277 17.7974 6.43151C19.2379 6.48025 20.4447 5.33403 20.4927 3.87135Z" stroke="#7373FF" stroke-miterlimit="10"/>
<path d="M6.61761 3.86824C6.66635 2.40559 5.53802 1.18097 4.09742 1.13297C2.65682 1.08497 1.44948 2.23176 1.40074 3.69441C1.35201 5.15707 2.48034 6.38169 3.92094 6.42969C5.36153 6.47769 6.56888 5.33089 6.61761 3.86824Z" stroke="#7373FF" stroke-miterlimit="10"/>
</g>
</svg>
