<svg viewBox="0 0 25 27" fill="none" xmlns="http://www.w3.org/2000/svg">
<g opacity="0.7">
<path d="M12.9507 0H12.0317V5.4706H12.9507V0Z" fill="#4E3FFF"/>
<path d="M15.2229 2.27734H9.7561V3.19629H15.2229V2.27734Z" fill="#4E3FFF"/>
<path d="M17.8371 5.14307H16.9188V10.6137H17.8371V5.14307Z" fill="#4E3FFF"/>
<path d="M20.11 7.42041H14.6432V8.33936H20.11V7.42041Z" fill="#4E3FFF"/>
<path d="M22.7244 10.2891H21.806V15.7597H22.7244V10.2891Z" fill="#4E3FFF"/>
<path d="M25 12.5635H19.5332V13.4824H25V12.5635Z" fill="#4E3FFF"/>
<path d="M8.07251 4.88135H7.15356V10.3519H8.07251V4.88135Z" fill="#4E3FFF"/>
<path d="M10.3447 7.15869H4.87793V8.07764H10.3447V7.15869Z" fill="#4E3FFF"/>
<path d="M12.9589 10.0244H12.0406V15.495H12.9589V10.0244Z" fill="#4E3FFF"/>
<path d="M15.2318 12.3018H9.76501V13.2207H15.2318V12.3018Z" fill="#4E3FFF"/>
<path d="M17.8463 15.1704H16.928V20.641H17.8463V15.1704Z" fill="#4E3FFF"/>
<path d="M20.122 17.4448H14.6552V18.3638H20.122V17.4448Z" fill="#4E3FFF"/>
<path d="M3.19396 10.373H2.27563V15.8436H3.19396V10.373Z" fill="#4E3FFF"/>
<path d="M5.46681 12.6504H0V13.5693H5.46681V12.6504Z" fill="#4E3FFF"/>
<path d="M8.08097 15.5161H7.16272V20.9867H8.08097V15.5161Z" fill="#4E3FFF"/>
<path d="M10.3539 17.7935H4.88708V18.7124H10.3539V17.7935Z" fill="#4E3FFF"/>
<path d="M12.9681 20.6621H12.0498V26.1327H12.9681V20.6621Z" fill="#4E3FFF"/>
<path d="M15.2439 22.9365H9.7771V23.8555H15.2439V22.9365Z" fill="#4E3FFF"/>
</g>
</svg>
