<svg viewBox="0 0 118 73" fill="none" xmlns="http://www.w3.org/2000/svg">
<g opacity="0.5">
<path d="M12.0149 5.79086C12.0149 8.98851 9.32466 11.5817 6.00743 11.5817C2.6902 11.5817 0 8.98851 0 5.79086C0 2.59322 2.6902 0 6.00743 0C9.34489 0.0194978 12.0149 2.61271 12.0149 5.79086Z" fill="#4E3FFF"/>
<path d="M38.4899 5.79086C38.4899 8.98851 35.7998 11.5817 32.4825 11.5817C29.1653 11.5817 26.4751 8.98851 26.4751 5.79086C26.4751 2.59322 29.1653 0 32.4825 0C35.82 0.0194978 38.4899 2.61271 38.4899 5.79086Z" fill="#4E3FFF"/>
<path d="M64.966 5.79086C64.966 8.98851 62.2758 11.5817 58.9586 11.5817C55.6414 11.5817 52.9512 8.98851 52.9512 5.79086C52.9512 2.59322 55.6414 0 58.9586 0C62.2758 0.0194978 64.966 2.61271 64.966 5.79086Z" fill="#4E3FFF"/>
<path d="M91.4416 5.79086C91.4416 8.98851 88.7514 11.5817 85.4342 11.5817C82.117 11.5817 79.4268 8.98851 79.4268 5.79086C79.4268 2.59322 82.117 0 85.4342 0C88.7514 0 91.4416 2.61271 91.4416 5.79086Z" fill="#4E3FFF"/>
<path d="M117.917 5.79086C117.917 8.98851 115.227 11.5817 111.91 11.5817C108.593 11.5817 105.902 8.98851 105.902 5.79086C105.902 2.59322 108.593 0 111.91 0C115.227 0.0194978 117.917 2.61271 117.917 5.79086Z" fill="#4E3FFF"/>
<path d="M12.0149 36.4998C12.0149 39.6975 9.32466 42.2907 6.00743 42.2907C2.6902 42.2907 0 39.6975 0 36.4998C0 33.3022 2.6902 30.709 6.00743 30.709C9.34489 30.709 12.0149 33.3022 12.0149 36.4998Z" fill="#4E3FFF"/>
<path d="M38.4899 36.4998C38.4899 39.6975 35.7998 42.2907 32.4825 42.2907C29.1653 42.2907 26.4751 39.6975 26.4751 36.4998C26.4751 33.3022 29.1653 30.709 32.4825 30.709C35.82 30.709 38.4899 33.3022 38.4899 36.4998Z" fill="#4E3FFF"/>
<path d="M64.966 36.4998C64.966 39.6975 62.2758 42.2907 58.9586 42.2907C55.6414 42.2907 52.9512 39.6975 52.9512 36.4998C52.9512 33.3022 55.6414 30.709 58.9586 30.709C62.2758 30.709 64.966 33.3022 64.966 36.4998Z" fill="#4E3FFF"/>
<path d="M91.4416 36.4998C91.4416 39.6975 88.7514 42.2907 85.4342 42.2907C82.117 42.2907 79.4268 39.6975 79.4268 36.4998C79.4268 33.3022 82.117 30.709 85.4342 30.709C88.7514 30.709 91.4416 33.3022 91.4416 36.4998Z" fill="#4E3FFF"/>
<path d="M117.917 36.4998C117.917 39.6975 115.227 42.2907 111.91 42.2907C108.593 42.2907 105.902 39.6975 105.902 36.4998C105.902 33.3022 108.593 30.709 111.91 30.709C115.227 30.709 117.917 33.3022 117.917 36.4998Z" fill="#4E3FFF"/>
<path d="M12.0149 67.2088C12.0149 70.4065 9.32466 72.9997 6.00743 72.9997C2.6902 72.9997 0 70.4065 0 67.2088C0 64.0112 2.6902 61.418 6.00743 61.418C9.34489 61.418 12.0149 64.0112 12.0149 67.2088Z" fill="#4E3FFF"/>
<path d="M38.4899 67.2088C38.4899 70.4065 35.7998 72.9997 32.4825 72.9997C29.1653 72.9997 26.4751 70.4065 26.4751 67.2088C26.4751 64.0112 29.1653 61.418 32.4825 61.418C35.82 61.418 38.4899 64.0112 38.4899 67.2088Z" fill="#4E3FFF"/>
<path d="M64.966 67.2088C64.966 70.4065 62.2758 72.9997 58.9586 72.9997C55.6414 72.9997 52.9512 70.4065 52.9512 67.2088C52.9512 64.0112 55.6414 61.418 58.9586 61.418C62.2758 61.418 64.966 64.0112 64.966 67.2088Z" fill="#4E3FFF"/>
<path d="M91.4416 67.2088C91.4416 70.4065 88.7514 72.9997 85.4342 72.9997C82.117 72.9997 79.4268 70.4065 79.4268 67.2088C79.4268 64.0112 82.117 61.418 85.4342 61.418C88.7514 61.418 91.4416 64.0112 91.4416 67.2088Z" fill="#4E3FFF"/>
<path d="M117.917 67.2088C117.917 70.4065 115.227 72.9997 111.91 72.9997C108.593 72.9997 105.902 70.4065 105.902 67.2088C105.902 64.0112 108.593 61.418 111.91 61.418C115.227 61.418 117.917 64.0112 117.917 67.2088Z" fill="#4E3FFF"/>
</g>
</svg>
