<svg viewBox="0 0 91 92" fill="none" xmlns="http://www.w3.org/2000/svg">
<path d="M90.4838 87.08L4.72949 0H90.4838V87.08Z" fill="url(#paint0_linear)"/>
<path d="M79.2957 18.1704C79.2957 17.0404 78.3995 16.1304 77.2866 16.1304C76.1736 16.1304 75.2773 17.0404 75.2773 18.1704C75.2773 19.3004 76.1736 20.2104 77.2866 20.2104C78.3896 20.2104 79.2957 19.2904 79.2957 18.1704Z" fill="url(#paint1_linear)"/>
<path d="M72.2633 11.04C71.1504 11.04 70.2542 11.95 70.2542 13.08C70.2542 14.21 71.1504 15.12 72.2633 15.12C73.3762 15.12 74.2725 14.21 74.2725 13.08C74.2725 11.95 73.3762 11.04 72.2633 11.04Z" fill="url(#paint2_linear)"/>
<path d="M77.2866 40.5902C78.3995 40.5902 79.2957 39.6802 79.2957 38.5502C79.2957 37.4202 78.3995 36.5103 77.2866 36.5103C76.1736 36.5103 75.2773 37.4202 75.2773 38.5502C75.2773 39.6702 76.1736 40.5902 77.2866 40.5902Z" fill="url(#paint3_linear)"/>
<path d="M77.2866 30.4003C78.3995 30.4003 79.2957 29.4903 79.2957 28.3603C79.2957 27.2303 78.3995 26.3203 77.2866 26.3203C76.1736 26.3203 75.2773 27.2303 75.2773 28.3603C75.2773 29.4803 76.1736 30.4003 77.2866 30.4003Z" fill="url(#paint4_linear)"/>
<path d="M72.2633 31.4204C71.1504 31.4204 70.2542 32.3304 70.2542 33.4604C70.2542 34.5904 71.1504 35.5004 72.2633 35.5004C73.3762 35.5004 74.2725 34.5904 74.2725 33.4604C74.2725 32.3304 73.3762 31.4204 72.2633 31.4204Z" fill="url(#paint5_linear)"/>
<path d="M77.2866 56.8901C76.1736 56.8901 75.2773 57.8001 75.2773 58.9301C75.2773 60.0601 76.1736 60.9701 77.2866 60.9701C78.3995 60.9701 79.2957 60.0601 79.2957 58.9301C79.2957 57.8001 78.3896 56.8901 77.2866 56.8901Z" fill="url(#paint6_linear)"/>
<path d="M77.2866 46.7002C76.1736 46.7002 75.2773 47.6102 75.2773 48.7402C75.2773 49.8702 76.1736 50.7802 77.2866 50.7802C78.3995 50.7802 79.2957 49.8702 79.2957 48.7402C79.2957 47.6102 78.3896 46.7002 77.2866 46.7002Z" fill="url(#paint7_linear)"/>
<path d="M72.2633 51.8003C71.1504 51.8003 70.2542 52.7103 70.2542 53.8403C70.2542 54.9703 71.1504 55.8803 72.2633 55.8803C73.3762 55.8803 74.2725 54.9703 74.2725 53.8403C74.2725 52.7103 73.3762 51.8003 72.2633 51.8003Z" fill="url(#paint8_linear)"/>
<path d="M77.2866 77.2705C76.1736 77.2705 75.2773 78.1805 75.2773 79.3105C75.2773 80.4405 76.1736 81.3505 77.2866 81.3505C78.3995 81.3505 79.2957 80.4405 79.2957 79.3105C79.2957 78.1805 78.3896 77.2705 77.2866 77.2705Z" fill="url(#paint9_linear)"/>
<path d="M77.2866 67.0801C76.1736 67.0801 75.2773 67.9901 75.2773 69.1201C75.2773 70.2501 76.1736 71.1601 77.2866 71.1601C78.3995 71.1601 79.2957 70.2501 79.2957 69.1201C79.2957 67.9901 78.3896 67.0801 77.2866 67.0801Z" fill="url(#paint10_linear)"/>
<path d="M72.2633 72.1704C71.1504 72.1704 70.2542 73.0804 70.2542 74.2104C70.2542 75.3404 71.1504 76.2504 72.2633 76.2504C73.3762 76.2504 74.2725 75.3404 74.2725 74.2104C74.2725 73.0904 73.3762 72.1704 72.2633 72.1704Z" fill="url(#paint11_linear)"/>
<path d="M79.2957 89.5C79.2957 88.37 78.3995 87.46 77.2866 87.46C76.1736 87.46 75.2773 88.37 75.2773 89.5C75.2773 89.75 75.3266 89.98 75.4054 90.21L76.5873 91.41C76.8039 91.49 77.0403 91.54 77.2866 91.54C78.3896 91.54 79.2957 90.62 79.2957 89.5Z" fill="url(#paint12_linear)"/>
<path d="M62.2274 11.04C61.1145 11.04 60.2183 11.95 60.2183 13.08C60.2183 14.21 61.1145 15.12 62.2274 15.12C63.3403 15.12 64.2366 14.21 64.2366 13.08C64.2366 11.95 63.3403 11.04 62.2274 11.04Z" fill="url(#paint13_linear)"/>
<path d="M69.2593 18.1704C69.2593 17.0404 68.3631 16.1304 67.2502 16.1304C66.1373 16.1304 65.241 17.0404 65.241 18.1704C65.241 19.3004 66.1373 20.2104 67.2502 20.2104C68.3533 20.2104 69.2593 19.2904 69.2593 18.1704Z" fill="url(#paint14_linear)"/>
<path d="M59.2234 18.1704C59.2234 17.0404 58.3272 16.1304 57.2143 16.1304C56.1014 16.1304 55.2051 17.0404 55.2051 18.1704C55.2051 19.3004 56.1014 20.2104 57.2143 20.2104C58.3174 20.2104 59.2234 19.2904 59.2234 18.1704Z" fill="url(#paint15_linear)"/>
<path d="M52.1913 11.04C51.0784 11.04 50.1821 11.95 50.1821 13.08C50.1821 14.21 51.0784 15.12 52.1913 15.12C53.3042 15.12 54.2005 14.21 54.2005 13.08C54.2005 11.95 53.3042 11.04 52.1913 11.04Z" fill="url(#paint16_linear)"/>
<path d="M63.8919 42.5001C63.5275 41.9601 62.9168 41.6001 62.2274 41.6001C61.538 41.6001 60.9274 41.9601 60.5629 42.5001C60.3463 42.8301 60.2183 43.2201 60.2183 43.6401C60.2183 44.7701 61.1145 45.6801 62.2274 45.6801C63.3403 45.6801 64.2366 44.7701 64.2366 43.6401C64.2366 43.2201 64.1086 42.8301 63.8919 42.5001Z" fill="url(#paint17_linear)"/>
<path d="M62.2274 31.4204C61.1145 31.4204 60.2183 32.3304 60.2183 33.4604C60.2183 34.5904 61.1145 35.5004 62.2274 35.5004C63.3403 35.5004 64.2366 34.5904 64.2366 33.4604C64.2366 32.3304 63.3403 31.4204 62.2274 31.4204Z" fill="url(#paint18_linear)"/>
<path d="M67.2502 40.5902C68.3631 40.5902 69.2593 39.6802 69.2593 38.5502C69.2593 37.4202 68.3631 36.5103 67.2502 36.5103C66.1373 36.5103 65.241 37.4202 65.241 38.5502C65.241 39.6702 66.1373 40.5902 67.2502 40.5902Z" fill="url(#paint19_linear)"/>
<path d="M57.2143 40.5902C58.3272 40.5902 59.2234 39.6802 59.2234 38.5502C59.2234 37.4202 58.3272 36.5103 57.2143 36.5103C56.1014 36.5103 55.2051 37.4202 55.2051 38.5502C55.2051 39.6702 56.1014 40.5902 57.2143 40.5902Z" fill="url(#paint20_linear)"/>
<path d="M67.2502 30.4003C68.3631 30.4003 69.2593 29.4903 69.2593 28.3603C69.2593 27.2303 68.3631 26.3203 67.2502 26.3203C66.1373 26.3203 65.241 27.2303 65.241 28.3603C65.241 29.4803 66.1373 30.4003 67.2502 30.4003Z" fill="url(#paint21_linear)"/>
<path d="M57.2143 30.4003C58.3272 30.4003 59.2234 29.4903 59.2234 28.3603C59.2234 27.2303 58.3272 26.3203 57.2143 26.3203C56.1014 26.3203 55.2051 27.2303 55.2051 28.3603C55.2051 29.4803 56.1014 30.4003 57.2143 30.4003Z" fill="url(#paint22_linear)"/>
<path d="M52.1913 41.6104C51.5019 41.6104 50.8912 41.9704 50.5268 42.5104C50.3101 42.8404 50.1821 43.2304 50.1821 43.6504C50.1821 44.7804 51.0784 45.6903 52.1913 45.6903C53.3042 45.6903 54.2005 44.7804 54.2005 43.6504C54.2005 43.2304 54.0724 42.8404 53.8557 42.5104C53.5012 41.9604 52.8906 41.6104 52.1913 41.6104Z" fill="url(#paint23_linear)"/>
<path d="M52.1913 31.4204C51.0784 31.4204 50.1821 32.3304 50.1821 33.4604C50.1821 34.5904 51.0784 35.5004 52.1913 35.5004C53.3042 35.5004 54.2005 34.5904 54.2005 33.4604C54.2005 32.3304 53.3042 31.4204 52.1913 31.4204Z" fill="url(#paint24_linear)"/>
<path d="M62.2274 25.3002C63.3403 25.3002 64.2366 24.3902 64.2366 23.2602C64.2366 22.8402 64.1086 22.4502 63.8919 22.1202C63.5275 21.5802 62.9168 21.2202 62.2274 21.2202C61.538 21.2202 60.9274 21.5802 60.5629 22.1202C60.3463 22.4502 60.2183 22.8402 60.2183 23.2602C60.2281 24.3902 61.1243 25.3002 62.2274 25.3002Z" fill="url(#paint25_linear)"/>
<path d="M72.2633 25.3002C73.3762 25.3002 74.2725 24.3902 74.2725 23.2602C74.2725 22.8402 74.1444 22.4502 73.9278 22.1202C73.5634 21.5802 72.9527 21.2202 72.2633 21.2202C71.5739 21.2202 70.9632 21.5802 70.5988 22.1202C70.3822 22.4502 70.2542 22.8402 70.2542 23.2602C70.264 24.3902 71.1602 25.3002 72.2633 25.3002Z" fill="url(#paint26_linear)"/>
<path d="M62.2274 61.9805C61.538 61.9805 60.9274 62.3405 60.5629 62.8805C60.3463 63.2105 60.2183 63.6005 60.2183 64.0205C60.2183 65.1505 61.1145 66.0605 62.2274 66.0605C63.3403 66.0605 64.2366 65.1505 64.2366 64.0205C64.2366 63.6005 64.1086 63.2105 63.8919 62.8805C63.5373 62.3405 62.9267 61.9805 62.2274 61.9805Z" fill="url(#paint27_linear)"/>
<path d="M62.2274 51.8003C61.1145 51.8003 60.2183 52.7103 60.2183 53.8403C60.2183 54.9703 61.1145 55.8803 62.2274 55.8803C63.3403 55.8803 64.2366 54.9703 64.2366 53.8403C64.2366 52.7103 63.3403 51.8003 62.2274 51.8003Z" fill="url(#paint28_linear)"/>
<path d="M67.2502 56.8901C66.1373 56.8901 65.241 57.8001 65.241 58.9301C65.241 60.0601 66.1373 60.9701 67.2502 60.9701C68.3631 60.9701 69.2593 60.0601 69.2593 58.9301C69.2593 57.8001 68.3533 56.8901 67.2502 56.8901Z" fill="url(#paint29_linear)"/>
<path d="M59.2234 58.9301C59.2234 57.8001 58.3272 56.8901 57.2143 56.8901C56.1014 56.8901 55.2051 57.8001 55.2051 58.9301C55.2051 60.0601 56.1014 60.9701 57.2143 60.9701C58.3174 60.9701 59.2234 60.0501 59.2234 58.9301Z" fill="url(#paint30_linear)"/>
<path d="M67.2502 46.7002C66.1373 46.7002 65.241 47.6102 65.241 48.7402C65.241 49.8702 66.1373 50.7802 67.2502 50.7802C68.3631 50.7802 69.2593 49.8702 69.2593 48.7402C69.2593 47.6102 68.3533 46.7002 67.2502 46.7002Z" fill="url(#paint31_linear)"/>
<path d="M57.2143 46.7002C56.1014 46.7002 55.2051 47.6102 55.2051 48.7402C55.2051 49.8702 56.1014 50.7802 57.2143 50.7802C58.3272 50.7802 59.2234 49.8702 59.2234 48.7402C59.2234 47.6102 58.3174 46.7002 57.2143 46.7002Z" fill="url(#paint32_linear)"/>
<path d="M52.1913 51.8003C51.0784 51.8003 50.1821 52.7103 50.1821 53.8403C50.1821 54.9703 51.0784 55.8803 52.1913 55.8803C53.3042 55.8803 54.2005 54.9703 54.2005 53.8403C54.2005 52.7103 53.3042 51.8003 52.1913 51.8003Z" fill="url(#paint33_linear)"/>
<path d="M72.2633 45.6801C73.3762 45.6801 74.2725 44.7701 74.2725 43.6401C74.2725 43.2201 74.1444 42.8301 73.9278 42.5001C73.5634 41.9601 72.9527 41.6001 72.2633 41.6001C71.5739 41.6001 70.9632 41.9601 70.5988 42.5001C70.3822 42.8301 70.2542 43.2201 70.2542 43.6401C70.264 44.7701 71.1602 45.6801 72.2633 45.6801Z" fill="url(#paint34_linear)"/>
<path d="M64.2366 74.2104C64.2366 73.0804 63.3403 72.1704 62.2274 72.1704C61.1145 72.1704 60.2183 73.0804 60.2183 74.2104C60.2183 74.4604 60.2675 74.6904 60.3463 74.9204L61.5282 76.1204C61.7449 76.2004 61.9812 76.2504 62.2274 76.2504C63.3403 76.2504 64.2366 75.3404 64.2366 74.2104Z" fill="url(#paint35_linear)"/>
<path d="M69.2593 79.3105C69.2593 78.1805 68.3631 77.2705 67.2502 77.2705C66.1373 77.2705 65.241 78.1805 65.241 79.3105C65.241 79.5605 65.2902 79.7905 65.369 80.0205L66.5509 81.2205C66.7676 81.3005 67.004 81.3505 67.2502 81.3505C68.3533 81.3505 69.2593 80.4305 69.2593 79.3105Z" fill="url(#paint36_linear)"/>
<path d="M67.2502 67.0801C66.1373 67.0801 65.241 67.9901 65.241 69.1201C65.241 70.2501 66.1373 71.1601 67.2502 71.1601C68.3631 71.1601 69.2593 70.2501 69.2593 69.1201C69.2593 67.9901 68.3533 67.0801 67.2502 67.0801Z" fill="url(#paint37_linear)"/>
<path d="M59.2234 69.1201C59.2234 67.9901 58.3272 67.0801 57.2143 67.0801C56.1014 67.0801 55.2051 67.9901 55.2051 69.1201C55.2051 69.3701 55.2543 69.6001 55.3331 69.8301L56.515 71.0301C56.7317 71.1101 56.9681 71.1601 57.2143 71.1601C58.3174 71.1601 59.2234 70.2401 59.2234 69.1201Z" fill="url(#paint38_linear)"/>
<path d="M72.2633 66.0605C73.3762 66.0605 74.2725 65.1505 74.2725 64.0205C74.2725 63.6005 74.1444 63.2105 73.9278 62.8805C73.5634 62.3405 72.9527 61.9805 72.2633 61.9805C71.5739 61.9805 70.9632 62.3405 70.5988 62.8805C70.3822 63.2105 70.2542 63.6005 70.2542 64.0205C70.264 65.1505 71.1602 66.0605 72.2633 66.0605Z" fill="url(#paint39_linear)"/>
<path d="M72.2633 86.4403C73.3762 86.4403 74.2725 85.5304 74.2725 84.4004C74.2725 83.9804 74.1444 83.5904 73.9278 83.2604C73.5634 82.7204 72.9527 82.3604 72.2633 82.3604C71.5739 82.3604 70.9632 82.7204 70.5988 83.2604C70.3822 83.5904 70.2542 83.9804 70.2542 84.4004C70.2542 84.6504 70.3034 84.8804 70.3822 85.1104L71.5641 86.3103C71.7906 86.3903 72.0171 86.4403 72.2633 86.4403Z" fill="url(#paint40_linear)"/>
<path d="M42.1551 11.04C41.0422 11.04 40.146 11.95 40.146 13.08C40.146 14.21 41.0422 15.12 42.1551 15.12C43.2681 15.12 44.1644 14.21 44.1644 13.08C44.1644 11.95 43.2681 11.04 42.1551 11.04Z" fill="url(#paint41_linear)"/>
<path d="M49.1873 18.1704C49.1873 17.0404 48.2911 16.1304 47.1782 16.1304C46.0652 16.1304 45.1689 17.0404 45.1689 18.1704C45.1689 19.3004 46.0652 20.2104 47.1782 20.2104C48.2812 20.2104 49.1873 19.2904 49.1873 18.1704Z" fill="url(#paint42_linear)"/>
<path d="M39.1512 18.1704C39.1512 17.0404 38.2549 16.1304 37.142 16.1304C36.0291 16.1304 35.1328 17.0404 35.1328 18.1704C35.1328 19.3004 36.0291 20.2104 37.142 20.2104C38.2451 20.2104 39.1512 19.2904 39.1512 18.1704Z" fill="url(#paint43_linear)"/>
<path d="M32.119 11.04C31.0061 11.04 30.1099 11.95 30.1099 13.08C30.1099 14.21 31.0061 15.12 32.119 15.12C33.2319 15.12 34.1282 14.21 34.1282 13.08C34.1282 11.95 33.2319 11.04 32.119 11.04Z" fill="url(#paint44_linear)"/>
<path d="M42.1551 41.6104C41.4657 41.6104 40.8551 41.9704 40.4907 42.5104C40.274 42.8404 40.146 43.2304 40.146 43.6504C40.146 44.7804 41.0422 45.6903 42.1551 45.6903C43.2681 45.6903 44.1644 44.7804 44.1644 43.6504C44.1644 43.2304 44.0363 42.8404 43.8196 42.5104C43.4651 41.9604 42.8544 41.6104 42.1551 41.6104Z" fill="url(#paint45_linear)"/>
<path d="M42.1551 31.4204C41.0422 31.4204 40.146 32.3304 40.146 33.4604C40.146 34.5904 41.0422 35.5004 42.1551 35.5004C43.2681 35.5004 44.1644 34.5904 44.1644 33.4604C44.1644 32.3304 43.2681 31.4204 42.1551 31.4204Z" fill="url(#paint46_linear)"/>
<path d="M47.1782 40.5902C48.2911 40.5902 49.1873 39.6802 49.1873 38.5502C49.1873 37.4202 48.2911 36.5103 47.1782 36.5103C46.0652 36.5103 45.1689 37.4202 45.1689 38.5502C45.1689 39.6702 46.0652 40.5902 47.1782 40.5902Z" fill="url(#paint47_linear)"/>
<path d="M37.142 40.5902C38.2549 40.5902 39.1512 39.6802 39.1512 38.5502C39.1512 37.4202 38.2549 36.5103 37.142 36.5103C36.0291 36.5103 35.1328 37.4202 35.1328 38.5502C35.1328 39.6702 36.0291 40.5902 37.142 40.5902Z" fill="url(#paint48_linear)"/>
<path d="M47.1782 30.4003C48.2911 30.4003 49.1873 29.4903 49.1873 28.3603C49.1873 27.2303 48.2911 26.3203 47.1782 26.3203C46.0652 26.3203 45.1689 27.2303 45.1689 28.3603C45.1689 29.4803 46.0652 30.4003 47.1782 30.4003Z" fill="url(#paint49_linear)"/>
<path d="M37.142 30.4003C38.2549 30.4003 39.1512 29.4903 39.1512 28.3603C39.1512 27.2303 38.2549 26.3203 37.142 26.3203C36.0291 26.3203 35.1328 27.2303 35.1328 28.3603C35.1328 29.4803 36.0291 30.4003 37.142 30.4003Z" fill="url(#paint50_linear)"/>
<path d="M32.119 31.4204C31.0061 31.4204 30.1099 32.3304 30.1099 33.4604C30.1099 34.5904 31.0061 35.5004 32.119 35.5004C33.2319 35.5004 34.1282 34.5904 34.1282 33.4604C34.1282 32.3304 33.2319 31.4204 32.119 31.4204Z" fill="url(#paint51_linear)"/>
<path d="M42.1551 25.3002C43.2681 25.3002 44.1644 24.3902 44.1644 23.2602C44.1644 22.8402 44.0363 22.4502 43.8196 22.1202C43.4552 21.5802 42.8446 21.2202 42.1551 21.2202C41.4657 21.2202 40.8551 21.5802 40.4907 22.1202C40.274 22.4502 40.146 22.8402 40.146 23.2602C40.1558 24.3902 41.0521 25.3002 42.1551 25.3002Z" fill="url(#paint52_linear)"/>
<path d="M52.1913 25.3002C53.3042 25.3002 54.2005 24.3902 54.2005 23.2602C54.2005 22.8402 54.0724 22.4502 53.8557 22.1202C53.4913 21.5802 52.8807 21.2202 52.1913 21.2202C51.5019 21.2202 50.8912 21.5802 50.5268 22.1202C50.3101 22.4502 50.1821 22.8402 50.1821 23.2602C50.192 24.3902 51.0882 25.3002 52.1913 25.3002Z" fill="url(#paint53_linear)"/>
<path d="M44.1644 53.83C44.1644 52.7 43.2681 51.79 42.1551 51.79C41.0422 51.79 40.146 52.7 40.146 53.83C40.146 54.08 40.1952 54.31 40.274 54.54L41.4559 55.74C41.6726 55.82 41.9089 55.87 42.1551 55.87C43.2681 55.87 44.1644 54.96 44.1644 53.83Z" fill="url(#paint54_linear)"/>
<path d="M49.1873 58.9301C49.1873 57.8001 48.2911 56.8901 47.1782 56.8901C46.0652 56.8901 45.1689 57.8001 45.1689 58.9301C45.1689 59.1801 45.2182 59.4101 45.297 59.6401L46.4789 60.8401C46.6955 60.9201 46.9319 60.9701 47.1782 60.9701C48.2812 60.9701 49.1873 60.0501 49.1873 58.9301Z" fill="url(#paint55_linear)"/>
<path d="M47.1782 46.7002C46.0652 46.7002 45.1689 47.6102 45.1689 48.7402C45.1689 49.8702 46.0652 50.7802 47.1782 50.7802C48.2911 50.7802 49.1873 49.8702 49.1873 48.7402C49.1873 47.6102 48.2812 46.7002 47.1782 46.7002Z" fill="url(#paint56_linear)"/>
<path d="M39.1512 48.7402C39.1512 47.6102 38.2549 46.7002 37.142 46.7002C36.0291 46.7002 35.1328 47.6102 35.1328 48.7402C35.1328 48.9902 35.1821 49.2202 35.2609 49.4502L36.4427 50.6502C36.6594 50.7302 36.8958 50.7802 37.142 50.7802C38.2451 50.7802 39.1512 49.8602 39.1512 48.7402Z" fill="url(#paint57_linear)"/>
<path d="M52.1913 66.0605C53.3042 66.0605 54.2005 65.1505 54.2005 64.0205C54.2005 63.6005 54.0724 63.2105 53.8557 62.8805C53.4913 62.3405 52.8807 61.9805 52.1913 61.9805C51.5019 61.9805 50.8912 62.3405 50.5268 62.8805C50.3101 63.2105 50.1821 63.6005 50.1821 64.0205C50.1821 64.2705 50.2314 64.5005 50.3102 64.7305L51.492 65.9305C51.7186 66.0105 51.9451 66.0605 52.1913 66.0605Z" fill="url(#paint58_linear)"/>
<path d="M22.0829 11.04C20.97 11.04 20.0737 11.95 20.0737 13.08C20.0737 14.21 20.97 15.12 22.0829 15.12C23.1958 15.12 24.0921 14.21 24.0921 13.08C24.0921 11.95 23.1958 11.04 22.0829 11.04Z" fill="url(#paint59_linear)"/>
<path d="M29.1153 18.1704C29.1153 17.0404 28.2191 16.1304 27.1061 16.1304C25.9932 16.1304 25.0969 17.0404 25.0969 18.1704C25.0969 19.3004 25.9932 20.2104 27.1061 20.2104C28.2092 20.2104 29.1153 19.2904 29.1153 18.1704Z" fill="url(#paint60_linear)"/>
<path d="M19.0793 18.1704C19.0793 17.0404 18.1831 16.1304 17.0702 16.1304C15.9573 16.1304 15.061 17.0404 15.061 18.1704C15.061 19.3004 15.9573 20.2104 17.0702 20.2104C18.1831 20.2104 19.0793 19.2904 19.0793 18.1704Z" fill="url(#paint61_linear)"/>
<path d="M12.047 11.04C10.9341 11.04 10.0378 11.95 10.0378 13.08C10.0378 14.21 10.9341 15.12 12.047 15.12C13.1599 15.12 14.0562 14.21 14.0562 13.08C14.0562 11.95 13.1599 11.04 12.047 11.04Z" fill="url(#paint62_linear)"/>
<path d="M22.0829 35.4902C23.1958 35.4902 24.0921 34.5802 24.0921 33.4502C24.0921 32.3202 23.1958 31.4102 22.0829 31.4102C20.97 31.4102 20.0737 32.3202 20.0737 33.4502C20.0737 33.7002 20.123 33.9302 20.2018 34.1602L21.3836 35.3602C21.6102 35.4402 21.8465 35.4902 22.0829 35.4902Z" fill="url(#paint63_linear)"/>
<path d="M27.1061 40.5902C28.2191 40.5902 29.1153 39.6802 29.1153 38.5502C29.1153 37.4202 28.2191 36.5103 27.1061 36.5103C25.9932 36.5103 25.0969 37.4202 25.0969 38.5502C25.0969 38.8002 25.1462 39.0303 25.225 39.2603L26.4068 40.4603C26.6235 40.5403 26.8599 40.5902 27.1061 40.5902Z" fill="url(#paint64_linear)"/>
<path d="M27.1061 30.4003C28.2191 30.4003 29.1153 29.4903 29.1153 28.3603C29.1153 27.2303 28.2191 26.3203 27.1061 26.3203C25.9932 26.3203 25.0969 27.2303 25.0969 28.3603C25.0969 29.4803 25.9932 30.4003 27.1061 30.4003Z" fill="url(#paint65_linear)"/>
<path d="M17.0702 30.4003C18.1831 30.4003 19.0793 29.4903 19.0793 28.3603C19.0793 27.2303 18.1831 26.3203 17.0702 26.3203C15.9573 26.3203 15.061 27.2303 15.061 28.3603C15.061 28.6103 15.1102 28.8403 15.189 29.0703L16.3709 30.2703C16.5876 30.3503 16.824 30.4003 17.0702 30.4003Z" fill="url(#paint66_linear)"/>
<path d="M22.0829 25.3002C23.1958 25.3002 24.0921 24.3902 24.0921 23.2602C24.0921 22.8402 23.964 22.4502 23.7473 22.1202C23.3829 21.5802 22.7723 21.2202 22.0829 21.2202C21.3935 21.2202 20.7828 21.5802 20.4184 22.1202C20.2017 22.4502 20.0737 22.8402 20.0737 23.2602C20.0836 24.3902 20.9798 25.3002 22.0829 25.3002Z" fill="url(#paint67_linear)"/>
<path d="M32.119 25.3002C33.2319 25.3002 34.1282 24.3902 34.1282 23.2602C34.1282 22.8402 34.0002 22.4502 33.7835 22.1202C33.4191 21.5802 32.8084 21.2202 32.119 21.2202C31.4296 21.2202 30.819 21.5802 30.4546 22.1202C30.2379 22.4502 30.1099 22.8402 30.1099 23.2602C30.1197 24.3902 31.0159 25.3002 32.119 25.3002Z" fill="url(#paint68_linear)"/>
<path d="M32.119 45.6801C33.2319 45.6801 34.1282 44.7701 34.1282 43.6401C34.1282 43.2201 34.0002 42.8301 33.7835 42.5001C33.4191 41.9601 32.8084 41.6001 32.119 41.6001C31.4296 41.6001 30.819 41.9601 30.4546 42.5001C30.2379 42.8301 30.1099 43.2201 30.1099 43.6401C30.1099 43.8901 30.1591 44.1201 30.2379 44.3501L31.4198 45.5501C31.6463 45.6301 31.8826 45.6801 32.119 45.6801Z" fill="url(#paint69_linear)"/>
<path d="M2.01117 15.1103C3.12409 15.1103 4.02032 14.2003 4.02032 13.0703C4.02032 11.9403 3.12409 11.0303 2.01117 11.0303C0.898241 11.0303 0.00195312 11.9403 0.00195312 13.0703C0.00195312 13.3203 0.0512024 13.5503 0.129994 13.7803L1.31187 14.9803C1.5384 15.0603 1.77479 15.1103 2.01117 15.1103Z" fill="url(#paint70_linear)"/>
<path d="M7.03405 20.2104C8.14698 20.2104 9.04321 19.3004 9.04321 18.1704C9.04321 17.0404 8.14698 16.1304 7.03405 16.1304C5.92113 16.1304 5.0249 17.0404 5.0249 18.1704C5.0249 18.4204 5.07409 18.6504 5.15288 18.8804L6.33476 20.0804C6.56129 20.1604 6.78783 20.2104 7.03405 20.2104Z" fill="url(#paint71_linear)"/>
<path d="M10.1759 23.9702L11.3578 25.1702C11.5744 25.2502 11.8108 25.3002 12.057 25.3002C13.1699 25.3002 14.0662 24.3902 14.0662 23.2602C14.0662 22.8402 13.9381 22.4502 13.7215 22.1202C13.3571 21.5802 12.7464 21.2202 12.057 21.2202C11.3676 21.2202 10.7569 21.5802 10.3925 22.1202C10.1759 22.4502 10.0479 22.8402 10.0479 23.2602C10.0479 23.5102 10.0971 23.7502 10.1759 23.9702Z" fill="url(#paint72_linear)"/>
<defs>
<linearGradient id="paint0_linear" x1="17.3648" y1="16.827" x2="81.7119" y2="57.2961" gradientUnits="userSpaceOnUse">
<stop stop-color="#883FFF"/>
<stop offset="1" stop-color="#E21EE2" stop-opacity="0"/>
</linearGradient>
<linearGradient id="paint1_linear" x1="75.8694" y1="16.9188" x2="78.8845" y2="18.8152" gradientUnits="userSpaceOnUse">
<stop stop-color="#883FFF"/>
<stop offset="1" stop-color="#E21EE2" stop-opacity="0"/>
</linearGradient>
<linearGradient id="paint2_linear" x1="70.8462" y1="11.8284" x2="73.8613" y2="13.7249" gradientUnits="userSpaceOnUse">
<stop stop-color="#883FFF"/>
<stop offset="1" stop-color="#E21EE2" stop-opacity="0"/>
</linearGradient>
<linearGradient id="paint3_linear" x1="75.8694" y1="37.2987" x2="78.8845" y2="39.1951" gradientUnits="userSpaceOnUse">
<stop stop-color="#883FFF"/>
<stop offset="1" stop-color="#E21EE2" stop-opacity="0"/>
</linearGradient>
<linearGradient id="paint4_linear" x1="75.8694" y1="27.1087" x2="78.8845" y2="29.0052" gradientUnits="userSpaceOnUse">
<stop stop-color="#883FFF"/>
<stop offset="1" stop-color="#E21EE2" stop-opacity="0"/>
</linearGradient>
<linearGradient id="paint5_linear" x1="70.8462" y1="32.2088" x2="73.8613" y2="34.1053" gradientUnits="userSpaceOnUse">
<stop stop-color="#883FFF"/>
<stop offset="1" stop-color="#E21EE2" stop-opacity="0"/>
</linearGradient>
<linearGradient id="paint6_linear" x1="75.8694" y1="57.6785" x2="78.8845" y2="59.575" gradientUnits="userSpaceOnUse">
<stop stop-color="#883FFF"/>
<stop offset="1" stop-color="#E21EE2" stop-opacity="0"/>
</linearGradient>
<linearGradient id="paint7_linear" x1="75.8694" y1="47.4886" x2="78.8845" y2="49.385" gradientUnits="userSpaceOnUse">
<stop stop-color="#883FFF"/>
<stop offset="1" stop-color="#E21EE2" stop-opacity="0"/>
</linearGradient>
<linearGradient id="paint8_linear" x1="70.8462" y1="52.5887" x2="73.8613" y2="54.4851" gradientUnits="userSpaceOnUse">
<stop stop-color="#883FFF"/>
<stop offset="1" stop-color="#E21EE2" stop-opacity="0"/>
</linearGradient>
<linearGradient id="paint9_linear" x1="75.8694" y1="78.0589" x2="78.8845" y2="79.9554" gradientUnits="userSpaceOnUse">
<stop stop-color="#883FFF"/>
<stop offset="1" stop-color="#E21EE2" stop-opacity="0"/>
</linearGradient>
<linearGradient id="paint10_linear" x1="75.8694" y1="67.8685" x2="78.8845" y2="69.7649" gradientUnits="userSpaceOnUse">
<stop stop-color="#883FFF"/>
<stop offset="1" stop-color="#E21EE2" stop-opacity="0"/>
</linearGradient>
<linearGradient id="paint11_linear" x1="70.8462" y1="72.9588" x2="73.8613" y2="74.8553" gradientUnits="userSpaceOnUse">
<stop stop-color="#883FFF"/>
<stop offset="1" stop-color="#E21EE2" stop-opacity="0"/>
</linearGradient>
<linearGradient id="paint12_linear" x1="75.8694" y1="88.2484" x2="78.8845" y2="90.1448" gradientUnits="userSpaceOnUse">
<stop stop-color="#883FFF"/>
<stop offset="1" stop-color="#E21EE2" stop-opacity="0"/>
</linearGradient>
<linearGradient id="paint13_linear" x1="60.8103" y1="11.8284" x2="63.8254" y2="13.7249" gradientUnits="userSpaceOnUse">
<stop stop-color="#883FFF"/>
<stop offset="1" stop-color="#E21EE2" stop-opacity="0"/>
</linearGradient>
<linearGradient id="paint14_linear" x1="65.833" y1="16.9188" x2="68.8481" y2="18.8152" gradientUnits="userSpaceOnUse">
<stop stop-color="#883FFF"/>
<stop offset="1" stop-color="#E21EE2" stop-opacity="0"/>
</linearGradient>
<linearGradient id="paint15_linear" x1="55.7972" y1="16.9188" x2="58.8122" y2="18.8152" gradientUnits="userSpaceOnUse">
<stop stop-color="#883FFF"/>
<stop offset="1" stop-color="#E21EE2" stop-opacity="0"/>
</linearGradient>
<linearGradient id="paint16_linear" x1="50.7742" y1="11.8284" x2="53.7892" y2="13.7249" gradientUnits="userSpaceOnUse">
<stop stop-color="#883FFF"/>
<stop offset="1" stop-color="#E21EE2" stop-opacity="0"/>
</linearGradient>
<linearGradient id="paint17_linear" x1="60.8103" y1="42.3885" x2="63.8254" y2="44.2849" gradientUnits="userSpaceOnUse">
<stop stop-color="#883FFF"/>
<stop offset="1" stop-color="#E21EE2" stop-opacity="0"/>
</linearGradient>
<linearGradient id="paint18_linear" x1="60.8103" y1="32.2088" x2="63.8254" y2="34.1053" gradientUnits="userSpaceOnUse">
<stop stop-color="#883FFF"/>
<stop offset="1" stop-color="#E21EE2" stop-opacity="0"/>
</linearGradient>
<linearGradient id="paint19_linear" x1="65.833" y1="37.2987" x2="68.8481" y2="39.1951" gradientUnits="userSpaceOnUse">
<stop stop-color="#883FFF"/>
<stop offset="1" stop-color="#E21EE2" stop-opacity="0"/>
</linearGradient>
<linearGradient id="paint20_linear" x1="55.7972" y1="37.2987" x2="58.8122" y2="39.1951" gradientUnits="userSpaceOnUse">
<stop stop-color="#883FFF"/>
<stop offset="1" stop-color="#E21EE2" stop-opacity="0"/>
</linearGradient>
<linearGradient id="paint21_linear" x1="65.833" y1="27.1087" x2="68.8481" y2="29.0052" gradientUnits="userSpaceOnUse">
<stop stop-color="#883FFF"/>
<stop offset="1" stop-color="#E21EE2" stop-opacity="0"/>
</linearGradient>
<linearGradient id="paint22_linear" x1="55.7972" y1="27.1087" x2="58.8122" y2="29.0052" gradientUnits="userSpaceOnUse">
<stop stop-color="#883FFF"/>
<stop offset="1" stop-color="#E21EE2" stop-opacity="0"/>
</linearGradient>
<linearGradient id="paint23_linear" x1="50.7742" y1="42.3988" x2="53.7892" y2="44.2952" gradientUnits="userSpaceOnUse">
<stop stop-color="#883FFF"/>
<stop offset="1" stop-color="#E21EE2" stop-opacity="0"/>
</linearGradient>
<linearGradient id="paint24_linear" x1="50.7742" y1="32.2088" x2="53.7892" y2="34.1053" gradientUnits="userSpaceOnUse">
<stop stop-color="#883FFF"/>
<stop offset="1" stop-color="#E21EE2" stop-opacity="0"/>
</linearGradient>
<linearGradient id="paint25_linear" x1="60.8103" y1="22.0086" x2="63.8254" y2="23.9051" gradientUnits="userSpaceOnUse">
<stop stop-color="#883FFF"/>
<stop offset="1" stop-color="#E21EE2" stop-opacity="0"/>
</linearGradient>
<linearGradient id="paint26_linear" x1="70.8462" y1="22.0086" x2="73.8613" y2="23.9051" gradientUnits="userSpaceOnUse">
<stop stop-color="#883FFF"/>
<stop offset="1" stop-color="#E21EE2" stop-opacity="0"/>
</linearGradient>
<linearGradient id="paint27_linear" x1="60.8103" y1="62.7689" x2="63.8254" y2="64.6653" gradientUnits="userSpaceOnUse">
<stop stop-color="#883FFF"/>
<stop offset="1" stop-color="#E21EE2" stop-opacity="0"/>
</linearGradient>
<linearGradient id="paint28_linear" x1="60.8103" y1="52.5887" x2="63.8254" y2="54.4851" gradientUnits="userSpaceOnUse">
<stop stop-color="#883FFF"/>
<stop offset="1" stop-color="#E21EE2" stop-opacity="0"/>
</linearGradient>
<linearGradient id="paint29_linear" x1="65.833" y1="57.6785" x2="68.8481" y2="59.575" gradientUnits="userSpaceOnUse">
<stop stop-color="#883FFF"/>
<stop offset="1" stop-color="#E21EE2" stop-opacity="0"/>
</linearGradient>
<linearGradient id="paint30_linear" x1="55.7972" y1="57.6785" x2="58.8122" y2="59.575" gradientUnits="userSpaceOnUse">
<stop stop-color="#883FFF"/>
<stop offset="1" stop-color="#E21EE2" stop-opacity="0"/>
</linearGradient>
<linearGradient id="paint31_linear" x1="65.833" y1="47.4886" x2="68.8481" y2="49.385" gradientUnits="userSpaceOnUse">
<stop stop-color="#883FFF"/>
<stop offset="1" stop-color="#E21EE2" stop-opacity="0"/>
</linearGradient>
<linearGradient id="paint32_linear" x1="55.7972" y1="47.4886" x2="58.8122" y2="49.385" gradientUnits="userSpaceOnUse">
<stop stop-color="#883FFF"/>
<stop offset="1" stop-color="#E21EE2" stop-opacity="0"/>
</linearGradient>
<linearGradient id="paint33_linear" x1="50.7742" y1="52.5887" x2="53.7892" y2="54.4851" gradientUnits="userSpaceOnUse">
<stop stop-color="#883FFF"/>
<stop offset="1" stop-color="#E21EE2" stop-opacity="0"/>
</linearGradient>
<linearGradient id="paint34_linear" x1="70.8462" y1="42.3885" x2="73.8613" y2="44.2849" gradientUnits="userSpaceOnUse">
<stop stop-color="#883FFF"/>
<stop offset="1" stop-color="#E21EE2" stop-opacity="0"/>
</linearGradient>
<linearGradient id="paint35_linear" x1="60.8103" y1="72.9588" x2="63.8254" y2="74.8553" gradientUnits="userSpaceOnUse">
<stop stop-color="#883FFF"/>
<stop offset="1" stop-color="#E21EE2" stop-opacity="0"/>
</linearGradient>
<linearGradient id="paint36_linear" x1="65.833" y1="78.0589" x2="68.8481" y2="79.9554" gradientUnits="userSpaceOnUse">
<stop stop-color="#883FFF"/>
<stop offset="1" stop-color="#E21EE2" stop-opacity="0"/>
</linearGradient>
<linearGradient id="paint37_linear" x1="65.833" y1="67.8685" x2="68.8481" y2="69.7649" gradientUnits="userSpaceOnUse">
<stop stop-color="#883FFF"/>
<stop offset="1" stop-color="#E21EE2" stop-opacity="0"/>
</linearGradient>
<linearGradient id="paint38_linear" x1="55.7972" y1="67.8685" x2="58.8122" y2="69.7649" gradientUnits="userSpaceOnUse">
<stop stop-color="#883FFF"/>
<stop offset="1" stop-color="#E21EE2" stop-opacity="0"/>
</linearGradient>
<linearGradient id="paint39_linear" x1="70.8462" y1="62.7689" x2="73.8613" y2="64.6653" gradientUnits="userSpaceOnUse">
<stop stop-color="#883FFF"/>
<stop offset="1" stop-color="#E21EE2" stop-opacity="0"/>
</linearGradient>
<linearGradient id="paint40_linear" x1="70.8462" y1="83.1488" x2="73.8613" y2="85.0452" gradientUnits="userSpaceOnUse">
<stop stop-color="#883FFF"/>
<stop offset="1" stop-color="#E21EE2" stop-opacity="0"/>
</linearGradient>
<linearGradient id="paint41_linear" x1="40.7381" y1="11.8284" x2="43.7531" y2="13.7249" gradientUnits="userSpaceOnUse">
<stop stop-color="#883FFF"/>
<stop offset="1" stop-color="#E21EE2" stop-opacity="0"/>
</linearGradient>
<linearGradient id="paint42_linear" x1="45.761" y1="16.9188" x2="48.7761" y2="18.8152" gradientUnits="userSpaceOnUse">
<stop stop-color="#883FFF"/>
<stop offset="1" stop-color="#E21EE2" stop-opacity="0"/>
</linearGradient>
<linearGradient id="paint43_linear" x1="35.7249" y1="16.9188" x2="38.7399" y2="18.8152" gradientUnits="userSpaceOnUse">
<stop stop-color="#883FFF"/>
<stop offset="1" stop-color="#E21EE2" stop-opacity="0"/>
</linearGradient>
<linearGradient id="paint44_linear" x1="30.7019" y1="11.8284" x2="33.717" y2="13.7249" gradientUnits="userSpaceOnUse">
<stop stop-color="#883FFF"/>
<stop offset="1" stop-color="#E21EE2" stop-opacity="0"/>
</linearGradient>
<linearGradient id="paint45_linear" x1="40.7381" y1="42.3988" x2="43.7531" y2="44.2952" gradientUnits="userSpaceOnUse">
<stop stop-color="#883FFF"/>
<stop offset="1" stop-color="#E21EE2" stop-opacity="0"/>
</linearGradient>
<linearGradient id="paint46_linear" x1="40.7381" y1="32.2088" x2="43.7531" y2="34.1053" gradientUnits="userSpaceOnUse">
<stop stop-color="#883FFF"/>
<stop offset="1" stop-color="#E21EE2" stop-opacity="0"/>
</linearGradient>
<linearGradient id="paint47_linear" x1="45.761" y1="37.2987" x2="48.7761" y2="39.1951" gradientUnits="userSpaceOnUse">
<stop stop-color="#883FFF"/>
<stop offset="1" stop-color="#E21EE2" stop-opacity="0"/>
</linearGradient>
<linearGradient id="paint48_linear" x1="35.7249" y1="37.2987" x2="38.7399" y2="39.1951" gradientUnits="userSpaceOnUse">
<stop stop-color="#883FFF"/>
<stop offset="1" stop-color="#E21EE2" stop-opacity="0"/>
</linearGradient>
<linearGradient id="paint49_linear" x1="45.761" y1="27.1087" x2="48.7761" y2="29.0052" gradientUnits="userSpaceOnUse">
<stop stop-color="#883FFF"/>
<stop offset="1" stop-color="#E21EE2" stop-opacity="0"/>
</linearGradient>
<linearGradient id="paint50_linear" x1="35.7249" y1="27.1087" x2="38.7399" y2="29.0052" gradientUnits="userSpaceOnUse">
<stop stop-color="#883FFF"/>
<stop offset="1" stop-color="#E21EE2" stop-opacity="0"/>
</linearGradient>
<linearGradient id="paint51_linear" x1="30.7019" y1="32.2088" x2="33.717" y2="34.1053" gradientUnits="userSpaceOnUse">
<stop stop-color="#883FFF"/>
<stop offset="1" stop-color="#E21EE2" stop-opacity="0"/>
</linearGradient>
<linearGradient id="paint52_linear" x1="40.7381" y1="22.0086" x2="43.7531" y2="23.9051" gradientUnits="userSpaceOnUse">
<stop stop-color="#883FFF"/>
<stop offset="1" stop-color="#E21EE2" stop-opacity="0"/>
</linearGradient>
<linearGradient id="paint53_linear" x1="50.7742" y1="22.0086" x2="53.7892" y2="23.9051" gradientUnits="userSpaceOnUse">
<stop stop-color="#883FFF"/>
<stop offset="1" stop-color="#E21EE2" stop-opacity="0"/>
</linearGradient>
<linearGradient id="paint54_linear" x1="40.7381" y1="52.5784" x2="43.7531" y2="54.4749" gradientUnits="userSpaceOnUse">
<stop stop-color="#883FFF"/>
<stop offset="1" stop-color="#E21EE2" stop-opacity="0"/>
</linearGradient>
<linearGradient id="paint55_linear" x1="45.761" y1="57.6785" x2="48.7761" y2="59.575" gradientUnits="userSpaceOnUse">
<stop stop-color="#883FFF"/>
<stop offset="1" stop-color="#E21EE2" stop-opacity="0"/>
</linearGradient>
<linearGradient id="paint56_linear" x1="45.761" y1="47.4886" x2="48.7761" y2="49.385" gradientUnits="userSpaceOnUse">
<stop stop-color="#883FFF"/>
<stop offset="1" stop-color="#E21EE2" stop-opacity="0"/>
</linearGradient>
<linearGradient id="paint57_linear" x1="35.7249" y1="47.4886" x2="38.7399" y2="49.385" gradientUnits="userSpaceOnUse">
<stop stop-color="#883FFF"/>
<stop offset="1" stop-color="#E21EE2" stop-opacity="0"/>
</linearGradient>
<linearGradient id="paint58_linear" x1="50.7742" y1="62.7689" x2="53.7892" y2="64.6653" gradientUnits="userSpaceOnUse">
<stop stop-color="#883FFF"/>
<stop offset="1" stop-color="#E21EE2" stop-opacity="0"/>
</linearGradient>
<linearGradient id="paint59_linear" x1="20.6658" y1="11.8284" x2="23.6809" y2="13.7249" gradientUnits="userSpaceOnUse">
<stop stop-color="#883FFF"/>
<stop offset="1" stop-color="#E21EE2" stop-opacity="0"/>
</linearGradient>
<linearGradient id="paint60_linear" x1="25.689" y1="16.9188" x2="28.704" y2="18.8152" gradientUnits="userSpaceOnUse">
<stop stop-color="#883FFF"/>
<stop offset="1" stop-color="#E21EE2" stop-opacity="0"/>
</linearGradient>
<linearGradient id="paint61_linear" x1="15.6531" y1="16.9188" x2="18.6681" y2="18.8152" gradientUnits="userSpaceOnUse">
<stop stop-color="#883FFF"/>
<stop offset="1" stop-color="#E21EE2" stop-opacity="0"/>
</linearGradient>
<linearGradient id="paint62_linear" x1="10.6299" y1="11.8284" x2="13.645" y2="13.7249" gradientUnits="userSpaceOnUse">
<stop stop-color="#883FFF"/>
<stop offset="1" stop-color="#E21EE2" stop-opacity="0"/>
</linearGradient>
<linearGradient id="paint63_linear" x1="20.6658" y1="32.1986" x2="23.6808" y2="34.095" gradientUnits="userSpaceOnUse">
<stop stop-color="#883FFF"/>
<stop offset="1" stop-color="#E21EE2" stop-opacity="0"/>
</linearGradient>
<linearGradient id="paint64_linear" x1="25.689" y1="37.2987" x2="28.704" y2="39.1951" gradientUnits="userSpaceOnUse">
<stop stop-color="#883FFF"/>
<stop offset="1" stop-color="#E21EE2" stop-opacity="0"/>
</linearGradient>
<linearGradient id="paint65_linear" x1="25.689" y1="27.1087" x2="28.704" y2="29.0052" gradientUnits="userSpaceOnUse">
<stop stop-color="#883FFF"/>
<stop offset="1" stop-color="#E21EE2" stop-opacity="0"/>
</linearGradient>
<linearGradient id="paint66_linear" x1="15.6531" y1="27.1087" x2="18.6681" y2="29.0051" gradientUnits="userSpaceOnUse">
<stop stop-color="#883FFF"/>
<stop offset="1" stop-color="#E21EE2" stop-opacity="0"/>
</linearGradient>
<linearGradient id="paint67_linear" x1="20.6658" y1="22.0086" x2="23.6809" y2="23.9051" gradientUnits="userSpaceOnUse">
<stop stop-color="#883FFF"/>
<stop offset="1" stop-color="#E21EE2" stop-opacity="0"/>
</linearGradient>
<linearGradient id="paint68_linear" x1="30.7019" y1="22.0086" x2="33.717" y2="23.9051" gradientUnits="userSpaceOnUse">
<stop stop-color="#883FFF"/>
<stop offset="1" stop-color="#E21EE2" stop-opacity="0"/>
</linearGradient>
<linearGradient id="paint69_linear" x1="30.7019" y1="42.3885" x2="33.717" y2="44.2849" gradientUnits="userSpaceOnUse">
<stop stop-color="#883FFF"/>
<stop offset="1" stop-color="#E21EE2" stop-opacity="0"/>
</linearGradient>
<linearGradient id="paint70_linear" x1="0.594031" y1="11.8187" x2="3.60907" y2="13.7151" gradientUnits="userSpaceOnUse">
<stop stop-color="#883FFF"/>
<stop offset="1" stop-color="#E21EE2" stop-opacity="0"/>
</linearGradient>
<linearGradient id="paint71_linear" x1="5.61697" y1="16.9188" x2="8.632" y2="18.8152" gradientUnits="userSpaceOnUse">
<stop stop-color="#883FFF"/>
<stop offset="1" stop-color="#E21EE2" stop-opacity="0"/>
</linearGradient>
<linearGradient id="paint72_linear" x1="10.6399" y1="22.0086" x2="13.655" y2="23.9051" gradientUnits="userSpaceOnUse">
<stop stop-color="#883FFF"/>
<stop offset="1" stop-color="#E21EE2" stop-opacity="0"/>
</linearGradient>
</defs>
</svg>
